<svg width="170" height="138" viewBox="0 0 170 138" fill="none" xmlns="http://www.w3.org/2000/svg">
<path d="M98.4289 109.117C98.4289 109.411 98.4797 109.601 98.5812 109.682C98.8635 109.8 99.1712 109.843 99.4749 109.807V110.582H96.2522V109.807C96.5526 109.842 96.8568 109.798 97.1358 109.682C97.1971 109.602 97.2419 109.511 97.2675 109.414C97.2931 109.317 97.2989 109.216 97.2847 109.117V105.982H92.9618V109.117C92.9618 109.411 93.0092 109.601 93.1108 109.682C93.3885 109.799 93.6917 109.842 93.9909 109.807V110.582H90.7852V109.807C91.0844 109.841 91.3875 109.798 91.6653 109.682C91.7266 109.602 91.7714 109.511 91.797 109.414C91.8226 109.317 91.8284 109.216 91.8142 109.117V102.099C91.828 102 91.822 101.899 91.7964 101.802C91.7709 101.704 91.7263 101.613 91.6653 101.534C91.387 101.419 91.0844 101.376 90.7852 101.409V100.637H93.9909V101.409C93.6917 101.376 93.389 101.419 93.1108 101.534C93.0092 101.618 92.9618 101.805 92.9618 102.099V105.037H97.2847V102.096C97.2985 101.996 97.2925 101.895 97.2669 101.798C97.2414 101.701 97.1968 101.61 97.1358 101.53C96.8563 101.416 96.5526 101.373 96.2522 101.405V100.637H99.4749V101.409C99.1713 101.375 98.864 101.418 98.5812 101.534C98.5188 101.613 98.4731 101.704 98.4469 101.801C98.4207 101.898 98.4146 101.999 98.4289 102.099V109.117Z" fill="white"/>
<path d="M105.748 109.34C105.139 108.426 104.834 107.157 104.834 105.535C104.834 102.174 106.103 100.494 108.642 100.494C111.181 100.494 112.451 102.174 112.451 105.535C112.451 107.155 112.145 108.423 111.533 109.34C110.922 110.256 109.958 110.714 108.642 110.714C107.324 110.714 106.36 110.256 105.748 109.34ZM106.615 102.434C106.208 103.111 106.005 104.145 106.005 105.535C106.005 106.936 106.208 107.996 106.615 108.72C106.837 109.055 107.139 109.33 107.493 109.521C107.848 109.711 108.243 109.81 108.646 109.81C109.048 109.81 109.444 109.711 109.798 109.521C110.153 109.33 110.454 109.055 110.677 108.72C111.083 107.996 111.286 106.936 111.286 105.535C111.286 104.133 111.083 103.121 110.677 102.434C110.271 101.747 109.597 101.418 108.646 101.418C107.694 101.418 107.021 101.75 106.615 102.434Z" fill="white"/>
<path d="M126.28 101.409C125.981 101.376 125.678 101.419 125.4 101.534C125.339 101.613 125.294 101.704 125.268 101.802C125.243 101.899 125.237 102 125.251 102.099V107.35C125.251 109.606 124.148 110.729 121.943 110.718C119.738 110.707 118.636 109.584 118.636 107.35V102.099C118.65 101.999 118.644 101.898 118.618 101.801C118.592 101.704 118.546 101.613 118.484 101.534C118.206 101.418 117.903 101.375 117.604 101.409V100.637H120.826V101.409C120.523 101.375 120.215 101.418 119.933 101.534C119.87 101.613 119.824 101.704 119.798 101.801C119.772 101.898 119.766 101.999 119.78 102.099V107.35C119.78 108.988 120.501 109.807 121.943 109.807C123.385 109.807 124.106 108.988 124.106 107.35V102.099C124.121 101.999 124.115 101.898 124.089 101.801C124.062 101.704 124.017 101.613 123.954 101.534C123.676 101.419 123.373 101.376 123.074 101.409V100.637H126.28V101.409Z" fill="white"/>
<path d="M133.149 101.817C133.007 101.958 132.896 102.128 132.823 102.314C132.751 102.501 132.717 102.7 132.726 102.901C132.728 103.099 132.771 103.294 132.854 103.474C132.937 103.654 133.057 103.814 133.207 103.943C133.556 104.261 133.949 104.527 134.375 104.732C134.832 104.955 135.292 105.199 135.749 105.456C136.207 105.715 136.605 106.068 136.917 106.492C137.239 106.938 137.407 107.476 137.394 108.026C137.412 108.393 137.348 108.76 137.207 109.101C137.066 109.441 136.851 109.745 136.579 109.993C135.937 110.509 135.126 110.767 134.304 110.717C133.328 110.745 132.359 110.537 131.48 110.111V109.075C132.337 109.532 133.289 109.778 134.26 109.793C135.578 109.793 136.237 109.229 136.237 108.1C136.237 107.888 136.195 107.678 136.112 107.482C136.03 107.287 135.908 107.11 135.756 106.963C135.416 106.621 135.021 106.338 134.588 106.127C134.137 105.901 133.676 105.662 133.207 105.409C132.75 105.163 132.35 104.824 132.032 104.414C131.712 103.993 131.544 103.476 131.555 102.948C131.538 102.605 131.602 102.263 131.74 101.949C131.879 101.636 132.089 101.359 132.354 101.14C132.935 100.694 133.653 100.464 134.385 100.49C135.326 100.476 136.257 100.695 137.093 101.127V102.548H136.379C136.379 101.783 135.746 101.401 134.473 101.401C133.994 101.362 133.519 101.511 133.149 101.817Z" fill="white"/>
<path d="M142.779 110.582V109.807C143.079 109.842 143.382 109.799 143.659 109.682C143.761 109.601 143.812 109.411 143.812 109.117V102.099C143.826 101.999 143.82 101.898 143.794 101.801C143.768 101.704 143.722 101.613 143.659 101.534C143.381 101.418 143.079 101.375 142.779 101.409V100.637H149.58V102.556H148.866C148.899 102.271 148.855 101.982 148.737 101.72C148.561 101.598 148.347 101.546 148.135 101.574H144.97V105.037H148.764V105.979H144.97V109.641H148.077C148.293 109.669 148.512 109.618 148.693 109.496C148.841 109.241 148.924 108.954 148.937 108.66H149.651L149.509 110.582H142.779Z" fill="white"/>
<path d="M18.2016 101.63C18.0595 101.772 17.9485 101.941 17.8757 102.127C17.8028 102.314 17.7697 102.514 17.7784 102.714C17.7793 102.912 17.8227 103.107 17.9056 103.287C17.9885 103.467 18.1091 103.627 18.2591 103.756C18.6068 104.075 19.0005 104.34 19.427 104.542C19.884 104.768 20.341 105.009 20.8014 105.269C21.2595 105.527 21.6566 105.88 21.9659 106.305C22.3294 106.836 22.4946 107.477 22.4327 108.117C22.3708 108.757 22.0857 109.355 21.6274 109.806C20.9847 110.322 20.1723 110.581 19.3492 110.53C18.3743 110.557 17.4072 110.349 16.5293 109.924V108.888C17.3853 109.345 18.3382 109.591 19.3085 109.606C20.6265 109.606 21.2844 109.042 21.2821 107.913C21.2829 107.701 21.2411 107.49 21.1591 107.295C21.0771 107.099 20.9566 106.921 20.8048 106.773C20.4634 106.433 20.0689 106.152 19.6369 105.94C19.1856 105.714 18.7252 105.474 18.2557 105.219C17.7975 104.976 17.3969 104.638 17.0811 104.227C16.7602 103.806 16.5908 103.29 16.6004 102.761C16.5832 102.418 16.6469 102.076 16.7862 101.762C16.9256 101.448 17.1367 101.171 17.4027 100.953C17.9881 100.503 18.713 100.273 19.4507 100.303C20.3865 100.291 21.3109 100.509 22.1419 100.94V102.362H21.4277C21.4277 101.597 20.7924 101.214 19.5218 101.214C19.0443 101.176 18.5708 101.325 18.2016 101.63Z" fill="white"/>
<path d="M33.6607 102.365C33.696 102.079 33.6514 101.79 33.532 101.529C33.4474 101.43 33.2477 101.383 32.9329 101.383H31.6567V108.925C31.6567 109.22 31.7074 109.409 31.809 109.491C32.0866 109.608 32.3899 109.651 32.6891 109.616V110.388H29.4664V109.616C29.7701 109.651 30.0779 109.608 30.3601 109.491C30.4617 109.409 30.5125 109.22 30.5125 108.925V101.383H29.2227C29.0086 101.354 28.7913 101.406 28.6134 101.529C28.4904 101.789 28.4435 102.079 28.4779 102.365H27.7637V100.445H34.3784V102.365H33.6607Z" fill="white"/>
<path d="M39.6602 110.388V109.616C39.9594 109.651 40.2627 109.608 40.5403 109.491C40.6419 109.409 40.6927 109.22 40.6927 108.925V101.908C40.6927 101.613 40.6419 101.424 40.5403 101.342C40.2627 101.225 39.9594 101.182 39.6602 101.217V100.445H46.461V102.365H45.7468C45.7801 102.08 45.7357 101.791 45.6181 101.529C45.4431 101.405 45.2276 101.353 45.0155 101.383H41.8369V104.849H45.6317V105.791H41.8369V109.45H44.9445C45.1607 109.478 45.3797 109.426 45.5606 109.304C45.708 109.049 45.7916 108.763 45.8043 108.468H46.5186L46.3764 110.388H39.6602Z" fill="white"/>
<path d="M58.9499 109.206C58.9801 109.344 59.0626 109.466 59.1801 109.544C59.3457 109.6 59.5204 109.623 59.6947 109.612V110.384H58.107L57.2742 107.469H53.889L53.0427 110.384H51.5059V109.612C51.6868 109.623 51.8681 109.6 52.0407 109.544C52.1041 109.502 52.1579 109.446 52.1987 109.381C52.2395 109.317 52.2664 109.244 52.2777 109.169L54.8403 100.367H56.3873L58.9499 109.206ZM56.174 103.637C55.8186 102.348 55.629 101.65 55.5986 101.538H55.5715C55.4936 101.853 55.3007 102.571 54.9824 103.695L54.1666 106.538H57.0034L56.174 103.637Z" fill="white"/>
<path d="M66.8603 108.925C66.8603 109.22 66.9077 109.409 67.0092 109.491C67.287 109.607 67.5901 109.65 67.8894 109.616V110.388H64.6836V109.616C64.9829 109.65 65.2859 109.607 65.5638 109.491C65.6251 109.411 65.6699 109.32 65.6955 109.223C65.7211 109.126 65.7269 109.025 65.7127 108.925V101.908C65.7269 101.808 65.7211 101.707 65.6955 101.61C65.6699 101.513 65.6251 101.422 65.5638 101.342C65.2859 101.226 64.9829 101.183 64.6836 101.217V100.445H67.8894V101.217C67.5901 101.183 67.287 101.226 67.0092 101.342C66.9077 101.424 66.8603 101.613 66.8603 101.908V108.925ZM71.1697 108.952C71.3078 109.167 71.4846 109.354 71.691 109.504C71.9047 109.594 72.1367 109.633 72.368 109.616V110.388H70.8379L67.3004 105.625V105.056L70.7668 100.445H72.2428V101.217C72.0226 101.201 71.8016 101.235 71.5962 101.315C71.4153 101.447 71.2604 101.611 71.1392 101.799L68.4615 105.293L71.1697 108.952Z" fill="white"/>
<path d="M19.8678 89.317C19.8973 89.4819 19.9634 89.638 20.0613 89.7739C20.1591 89.9098 20.2861 90.0221 20.4331 90.1024C20.8339 90.2425 21.2583 90.3024 21.6822 90.2784V93.7076H15.4568L14.1027 88.5147H7.3662L5.92749 93.7076H0V90.2784C0.458455 90.3126 0.917719 90.2238 1.33038 90.0212C1.67487 89.7381 1.90565 89.3402 1.98034 88.9007L7.24771 70.4648H14.641L19.8678 89.317ZM11.8313 80.3226C11.7388 79.9615 11.5684 79.2844 11.3201 78.2914C11.0662 77.3063 10.8868 76.548 10.7717 76.0132H10.704L9.50565 80.7288L8.61535 84.2223H12.7893L11.8313 80.3226Z" fill="white"/>
<path d="M47.5386 88.6749C47.5386 89.3813 47.63 89.8247 47.8128 90.0053C47.9922 90.1881 48.5169 90.2795 49.3835 90.2795V93.7087H42.2035V86.8469C42.1897 84.5671 42.2925 82.2882 42.5116 80.0189H42.3389L37.9618 93.7087H34.404L30.0269 80.0189H29.8746C30.0907 82.2884 30.1924 84.5672 30.1793 86.8469V93.7087H23.2734V90.2795C24.1604 90.2795 24.6986 90.1881 24.8814 90.0053C25.0642 89.8225 25.1522 89.3824 25.1522 88.6749V75.6588C25.1522 74.9547 25.0608 74.5112 24.8814 74.3284C24.702 74.1456 24.1604 74.0542 23.2734 74.0542V70.625H32.4372L35.2097 79.6973C35.2774 79.9783 35.3959 80.4252 35.5685 81.0514C35.7411 81.6777 35.907 82.2396 36.0289 82.744C36.1507 83.2484 36.2794 83.6953 36.3674 84.0575H36.5028C36.9395 82.0264 37.278 80.5741 37.5184 79.6973L40.2265 70.625H49.3903V74.0542C48.5237 74.0542 47.999 74.1456 47.8195 74.3284C47.6401 74.5112 47.5453 74.9547 47.5453 75.6588L47.5386 88.6749Z" fill="white"/>
<path d="M51.8145 93.7087V90.2795C52.7048 90.2795 53.2396 90.1881 53.4224 90.0053C53.6052 89.8225 53.6966 89.3824 53.6966 88.6749V75.6588C53.6966 74.9547 53.6052 74.5112 53.4224 74.3284C53.2396 74.1456 52.7048 74.0542 51.8145 74.0542V70.625H69.4175V76.654H66.3403C66.3403 75.8416 66.2388 75.3507 66.0323 75.1781C65.8258 75.0054 65.3553 74.9208 64.6308 74.9208H59.157V79.7312H66.3065V83.9966H59.157V89.4129H64.3228C64.7222 89.4241 65.1219 89.4025 65.5178 89.3486C65.7817 89.2839 66.0128 89.125 66.1677 88.9017C66.418 88.5371 66.5824 88.1204 66.6484 87.683H69.7256L69.387 93.7087H51.8145Z" fill="white"/>
<path d="M81.8761 70.625C87.8949 70.625 90.9044 73.0409 90.9044 77.8727C90.9044 80.951 89.7421 83.0024 87.4176 84.027V84.3655C88.4874 84.7718 89.3901 85.969 90.1258 87.9572L90.5015 89.0168C90.6843 89.5923 90.8875 89.9443 91.1177 90.073C91.3479 90.2016 91.8692 90.2659 92.6884 90.2659V93.6952H85.918L83.5246 86.6099C83.2064 85.6485 82.4854 85.1577 81.3683 85.134H80.6168V80.8517H81.8828C83.115 80.8517 83.993 80.6012 84.5165 80.1002C85.0401 79.5992 85.3019 78.8567 85.3019 77.8727C85.3019 75.9048 84.1622 74.9208 81.8828 74.9208H79.2491V88.6749C79.2491 89.3813 79.3406 89.8247 79.5234 90.0053C79.7062 90.1858 80.2308 90.2772 81.0974 90.2795V93.7087H71.8965V90.2795C72.7868 90.2795 73.3217 90.1881 73.5045 90.0053C73.6873 89.8225 73.7786 89.3824 73.7786 88.6749V75.6588C73.7786 74.9547 73.6873 74.5112 73.5045 74.3284C73.3217 74.1456 72.7868 74.0542 71.8965 74.0542V70.625H81.8761Z" fill="white"/>
<path d="M101.302 88.6749C101.302 89.3813 101.393 89.8247 101.576 90.0053C101.756 90.1881 102.28 90.2795 103.147 90.2795V93.7087H93.9492V90.2795C94.8361 90.2795 95.3744 90.1881 95.5538 90.0053C95.7332 89.8225 95.828 89.3824 95.828 88.6749V75.6588C95.828 74.9547 95.7366 74.5112 95.5538 74.3284C95.3744 74.1456 94.8361 74.0542 93.9492 74.0542V70.625H103.147V74.0542C102.28 74.0542 101.756 74.1456 101.576 74.3284C101.397 74.5112 101.302 74.9547 101.302 75.6588V88.6749Z" fill="white"/>
<path d="M107.667 91.1125C106.001 89.1694 105.17 86.1881 105.172 82.1688C105.174 78.1494 106.006 75.1648 107.667 73.2149C109.332 71.2718 112 70.2991 115.669 70.2969C118.102 70.3157 120.503 70.8511 122.714 71.8676V76.6475H119.637C119.637 75.1716 118.314 74.4336 115.669 74.4336C113.753 74.4336 112.46 75.0644 111.79 76.3259C111.12 77.5875 110.781 79.5328 110.774 82.162C110.774 84.7686 111.113 86.7083 111.79 87.9812C112.467 89.254 113.754 89.8893 115.652 89.887C118.234 89.8865 120.775 89.2357 123.039 87.9947L122.7 92.453C120.49 93.4695 118.089 94.0049 115.656 94.0238C111.995 94.0283 109.332 93.0578 107.667 91.1125Z" fill="white"/>
<path d="M143.854 89.317C143.884 89.4819 143.95 89.638 144.048 89.7739C144.145 89.9098 144.272 90.0221 144.419 90.1024C144.82 90.2425 145.245 90.3024 145.669 90.2784V93.7076H139.443L138.089 88.5147H131.353L129.914 93.7076H123.986V90.2784C124.445 90.3126 124.904 90.2238 125.317 90.0212C125.661 89.7381 125.892 89.3402 125.967 88.9007L131.234 70.4648H138.624L143.854 89.317ZM135.835 80.3226C135.744 79.9615 135.574 79.2844 135.323 78.2914C135.069 77.3063 134.89 76.548 134.775 76.0132H134.707L133.509 80.7288L132.619 84.2223H136.793L135.835 80.3226Z" fill="white"/>
<path d="M169.058 74.0542C168.171 74.0542 167.633 74.1456 167.453 74.3284C167.274 74.5112 167.179 74.9547 167.179 75.6588V93.7087H161.705L154.149 80.2119H153.977C154.197 82.4811 154.3 84.7601 154.285 87.0398V93.7087H147.24V90.2795C148.131 90.2795 148.665 90.1881 148.848 90.0053C149.031 89.8225 149.119 89.3824 149.119 88.6749V75.6588C149.119 74.9547 149.031 74.5112 148.848 74.3284C148.665 74.1456 148.131 74.0542 147.24 74.0542V70.625H154.593L162.152 84.1218H162.321C162.103 81.8525 162 79.5736 162.013 77.2938V70.625H169.058V74.0542Z" fill="white"/>
<path d="M34.5481 122.086C34.5311 122.073 34.5115 122.064 34.4906 122.059C34.4703 122.052 34.4872 122.062 34.5481 122.086Z" fill="#FBBE42"/>
<path d="M40.8935 123.965C41.2523 123.437 41.6146 122.919 41.9869 122.408C42.3593 121.897 42.7418 121.392 43.1278 120.891L44.4107 119.287C44.5529 119.104 44.7019 118.921 44.8576 118.745C45.0176 118.567 45.1668 118.379 45.3044 118.183L45.731 117.635C45.8732 117.452 46.0221 117.276 46.1812 117.107L46.4385 116.826C46.4385 116.826 46.4689 116.826 46.4385 116.826C46.4634 116.815 46.4846 116.798 46.4994 116.775L46.54 116.731C46.6461 116.815 46.7773 116.86 46.9124 116.86C47.0715 116.86 47.1595 116.816 47.1798 116.7C47.2356 116.556 47.2356 116.395 47.1798 116.25C47.1651 116.2 47.1391 116.155 47.1039 116.117C47.0687 116.078 47.0252 116.049 46.9767 116.03C46.8844 115.993 46.7845 115.979 46.6856 115.99C46.4962 116.002 46.3153 116.073 46.1677 116.193C46.0187 116.311 45.8799 116.433 45.7479 116.558C45.6007 116.7 45.4627 116.852 45.3349 117.012L44.9253 117.506L44.7797 117.719C44.7222 117.804 44.6308 117.926 44.5021 118.085C44.3735 118.244 44.1907 118.461 43.9639 118.732C43.7371 119.002 43.4324 119.361 43.0567 119.822C42.2826 120.799 41.5356 121.796 40.8157 122.814C40.0957 123.832 39.3961 124.868 38.7168 125.922C38.0059 127.023 37.3176 128.125 36.6519 129.229C35.9861 130.333 35.335 131.461 34.6986 132.614C34.5395 132.912 34.3804 133.21 34.228 133.508C34.0757 133.806 33.9234 134.104 33.7744 134.402C33.8049 134.256 33.8387 134.111 33.8692 133.968C33.8997 133.826 33.9369 133.674 33.9809 133.528C34.1434 132.872 34.3195 132.225 34.4752 131.582C34.6309 130.939 34.8137 130.289 34.9694 129.635C35.1838 128.744 35.379 127.852 35.5551 126.961C35.7315 126.069 35.8188 125.162 35.8157 124.253C35.8166 123.936 35.8008 123.62 35.7683 123.305C35.7358 122.989 35.6487 122.681 35.511 122.394C35.3726 122.096 35.1327 121.856 34.834 121.717C34.5323 121.579 34.1961 121.536 33.8692 121.592C33.3982 121.672 32.9567 121.875 32.5896 122.181C32.2199 122.483 31.8891 122.83 31.6045 123.214C31.3055 123.613 31.0459 124.04 30.8293 124.49C30.6093 124.943 30.4129 125.404 30.2369 125.878C30.0414 126.354 29.8885 126.847 29.7799 127.35C29.7188 127.651 29.6792 127.955 29.6614 128.261C29.6533 128.392 29.6845 128.522 29.7508 128.634C29.8172 128.747 29.9157 128.838 30.0338 128.894C30.1156 128.917 30.1995 128.932 30.2843 128.938C30.3266 128.942 30.3692 128.935 30.4074 128.916C30.4457 128.898 30.478 128.869 30.5009 128.833C30.5619 128.728 30.5348 128.637 30.4129 128.562L30.3892 128.522V128.413V128.288C30.3892 128.258 30.3892 128.254 30.3892 128.288C30.3892 128.288 30.3892 128.271 30.3892 128.251C30.3873 128.157 30.3941 128.063 30.4095 127.97C30.4366 127.78 30.4739 127.597 30.5145 127.415C30.5551 127.232 30.6059 127.046 30.6634 126.856C30.8827 126.119 31.1753 125.406 31.5368 124.727C31.7627 124.289 32.0184 123.867 32.3019 123.464C32.5844 123.066 32.9365 122.722 33.3411 122.449C33.3666 122.435 33.3904 122.42 33.4122 122.401L33.4833 122.354C33.4833 122.354 33.5104 122.354 33.5138 122.354C33.5191 122.351 33.5249 122.35 33.5307 122.35C33.5365 122.35 33.5422 122.351 33.5476 122.354C33.5517 122.347 33.5577 122.341 33.5648 122.336C33.5719 122.332 33.58 122.33 33.5882 122.33C33.6867 122.276 33.7898 122.231 33.8963 122.195C33.9368 122.176 33.9805 122.166 34.0249 122.164C34.0237 122.161 34.0233 122.159 34.0236 122.156C34.0239 122.153 34.0249 122.15 34.0267 122.147C34.0284 122.145 34.0307 122.143 34.0333 122.142C34.036 122.141 34.0389 122.14 34.0419 122.14H34.0656C34.1266 122.119 34.1905 122.107 34.2551 122.103C34.2807 122.105 34.3059 122.11 34.3296 122.12H34.3939L34.4379 122.14H34.4616C34.4616 122.14 34.4955 122.14 34.5293 122.178L34.5496 122.198L34.597 122.235C34.6028 122.235 34.6083 122.237 34.6127 122.241C34.6171 122.245 34.6199 122.25 34.6207 122.256C34.6512 122.283 34.6681 122.303 34.6681 122.316H34.6884V122.337L34.7866 122.499C34.8292 122.553 34.8561 122.617 34.8645 122.685V122.665C34.8801 122.682 34.8896 122.703 34.8915 122.726C34.8854 122.744 34.8854 122.763 34.8915 122.78C34.9019 122.795 34.9078 122.813 34.9085 122.831C34.9907 123.136 35.0451 123.447 35.071 123.762V124.341C35.0801 124.375 35.0801 124.411 35.071 124.446C35.0814 124.531 35.0814 124.618 35.071 124.703C35.071 124.849 35.0405 124.994 35.0303 125.136C35.0202 125.279 35.01 125.424 34.9931 125.566C34.9322 126.074 34.8611 126.582 34.7731 127.066C34.685 127.55 34.5801 128.051 34.465 128.545C34.3194 129.202 34.1603 129.852 33.9945 130.502C33.8286 131.152 33.656 131.805 33.5002 132.462C33.3919 132.868 33.287 133.274 33.1922 133.674C33.0974 134.073 33.0026 134.48 32.9078 134.889C32.8672 135.092 32.83 135.285 32.7927 135.475C32.7555 135.664 32.7284 135.861 32.7013 136.06C32.6742 136.26 32.6472 136.467 32.6133 136.67C32.5795 136.873 32.5354 137.076 32.4813 137.279C32.4699 137.319 32.4728 137.361 32.4895 137.399C32.5062 137.437 32.5356 137.467 32.5727 137.486C32.6406 137.529 32.7119 137.566 32.7859 137.597C32.8705 137.618 32.9587 137.618 33.0432 137.597C33.0827 137.589 33.1189 137.569 33.1472 137.54C33.1754 137.511 33.1946 137.475 33.2023 137.435C33.744 136.205 34.3194 135.004 34.9288 133.833C35.5381 132.662 36.1824 131.505 36.8617 130.363C37.5049 129.284 38.1538 128.221 38.8082 127.174C39.492 126.023 40.1792 125.008 40.8935 123.965Z" fill="#FBBE42"/>
<path d="M73.4728 125.174C73.4044 125.138 73.3298 125.115 73.2528 125.106C73.216 125.102 73.1787 125.105 73.1431 125.115C73.1076 125.126 73.0746 125.144 73.0463 125.167C72.9067 125.281 72.7765 125.405 72.657 125.54C72.5317 125.679 72.4099 125.804 72.2914 125.912L71.6347 126.525L71.066 127.019C70.8866 127.178 70.6868 127.337 70.4736 127.5C70.2603 127.662 70.135 127.733 70.0369 127.811C69.884 127.926 69.7246 128.033 69.5595 128.129C69.513 128.166 69.4618 128.195 69.4072 128.217L69.0247 128.387C68.8317 128.475 68.6388 128.556 68.4424 128.627C68.2535 128.7 68.0552 128.746 67.8534 128.763C67.8591 128.737 67.8591 128.71 67.8534 128.685C67.8477 128.66 67.8477 128.635 67.8534 128.61C67.894 128.407 67.9347 128.201 67.9753 127.991C68.0159 127.781 68.0633 127.571 68.1174 127.368L68.2799 126.755L68.3849 126.467L68.439 126.335L68.4932 126.2L68.7742 125.706L68.9468 125.479C69.001 125.418 69.0382 125.374 69.0653 125.35L69.1262 125.293L69.3666 125.1L69.5087 125.025L69.4918 125.049C69.5018 125.035 69.5161 125.026 69.5325 125.022L69.6137 124.974H69.5934C69.7423 124.907 69.7863 124.815 69.7186 124.707C69.6644 124.622 69.5797 124.56 69.4817 124.534C69.3809 124.499 69.271 124.499 69.1702 124.534C68.7836 124.699 68.4499 124.968 68.2054 125.31C68.1614 125.371 68.1208 125.435 68.0802 125.499C68.0348 125.523 67.9907 125.549 67.9482 125.577C67.8899 125.622 67.8289 125.662 67.7654 125.699C67.6605 125.794 67.542 125.888 67.4269 125.987C67.3118 126.085 67.1831 126.176 67.0884 126.271C66.5366 126.718 66.0288 127.114 65.5548 127.459C65.0867 127.803 64.5983 128.118 64.0924 128.404C63.8928 128.513 63.6858 128.608 63.4729 128.688C63.2528 128.769 63.0263 128.831 62.7959 128.874H62.6063C62.5606 128.874 62.5156 128.863 62.4743 128.844C62.4076 128.793 62.3599 128.722 62.3389 128.641C62.3389 128.57 62.3186 128.498 62.3118 128.427V128.339C62.3078 128.33 62.3078 128.319 62.3118 128.309C62.3157 128.298 62.3157 128.286 62.3118 128.275C62.3072 128.265 62.3049 128.254 62.3049 128.243C62.3049 128.232 62.3072 128.221 62.3118 128.211C62.3273 128.112 62.3558 128.015 62.3964 127.923L62.4337 127.879C62.5687 127.925 62.7132 127.935 62.8535 127.909C62.9894 127.887 63.1201 127.84 63.2394 127.771C63.4201 127.683 63.5943 127.582 63.7607 127.469C63.9253 127.359 64.0835 127.239 64.2346 127.111C64.5221 126.863 64.7729 126.576 64.9793 126.257C65.0794 126.094 65.1483 125.914 65.1825 125.726C65.1989 125.633 65.1866 125.538 65.1472 125.453C65.1079 125.368 65.0434 125.296 64.9624 125.249C64.8616 125.188 64.7483 125.151 64.6309 125.14C64.5136 125.129 64.3955 125.146 64.2854 125.188C64.0694 125.258 63.8643 125.358 63.676 125.486C63.4879 125.614 63.3102 125.756 63.1446 125.912C62.9879 126.059 62.8398 126.215 62.7011 126.379C62.6711 126.41 62.6429 126.443 62.6165 126.478L62.3423 126.728L61.9665 127.067C61.6709 127.335 61.3696 127.592 61.0627 127.838C60.7546 128.085 60.4398 128.322 60.1148 128.549C59.9794 128.644 59.844 128.735 59.7086 128.817C59.5721 128.901 59.4268 128.97 59.2753 129.023C59.2082 129.054 59.1392 129.082 59.0688 129.104C59.0386 129.108 59.0096 129.118 58.9842 129.135C58.9571 129.135 58.9605 129.135 58.9842 129.135C59.0079 129.135 59.0214 129.135 58.9842 129.135C58.9675 129.151 58.946 129.16 58.9232 129.162H58.8352H58.8149H58.7506L58.7066 129.142H58.6626C58.6334 129.121 58.6091 129.095 58.5915 129.064L58.5678 129.043L58.5204 128.962C58.508 128.941 58.4999 128.918 58.4967 128.895C58.4838 128.88 58.4746 128.863 58.4696 128.844C58.4732 128.834 58.4732 128.823 58.4696 128.813C58.4634 128.796 58.4634 128.777 58.4696 128.759L58.4527 128.549L58.4324 128.336V128.312V128.251C58.4422 128.208 58.4422 128.163 58.4324 128.119C58.4324 128.058 58.4527 127.997 58.4595 127.937C58.4662 127.876 58.5644 127.815 58.6152 127.75C59.0045 127.256 59.3836 126.735 59.756 126.234C60.2818 125.505 60.7885 124.77 61.2759 124.03C61.7668 123.292 62.2306 122.53 62.6639 121.752C62.7668 121.585 62.8606 121.414 62.9448 121.237C63.0302 121.058 63.1005 120.873 63.1547 120.682C63.2071 120.55 63.2391 120.411 63.2495 120.269C63.2597 120.197 63.2524 120.123 63.2283 120.054C63.2041 119.985 63.1638 119.923 63.1107 119.873C63.0153 119.768 62.8834 119.702 62.7417 119.69C62.6032 119.672 62.4624 119.683 62.3287 119.724C62.205 119.775 62.0906 119.846 61.9902 119.934C61.892 120.019 61.7939 120.11 61.7025 120.205C61.4556 120.443 61.2291 120.701 61.0254 120.977C60.8189 121.258 60.626 121.542 60.45 121.826C60.2739 122.111 60.1114 122.314 59.976 122.561C59.8406 122.808 59.6815 123.062 59.5461 123.316C59.4446 123.495 59.3498 123.678 59.2584 123.864C59.167 124.05 59.0688 124.24 58.9706 124.433C58.8014 124.771 58.6321 125.11 58.5001 125.479C58.3681 125.848 58.2293 126.193 58.1175 126.559C58.0039 126.891 57.9112 127.23 57.84 127.574C57.8265 127.637 57.8163 127.7 57.8095 127.764C57.6572 127.943 57.5014 128.126 57.3423 128.302C57.0817 128.61 56.8379 128.871 56.6111 129.091C56.3938 129.304 56.1504 129.49 55.8867 129.643L55.907 129.619C55.8907 129.623 55.8763 129.633 55.8664 129.646C55.8489 129.64 55.8297 129.64 55.8122 129.646C55.8024 129.65 55.7916 129.65 55.7818 129.646C55.768 129.647 55.7542 129.645 55.7421 129.638C55.73 129.631 55.7202 129.621 55.7141 129.609C55.6823 129.543 55.6694 129.469 55.6768 129.396V129.311C55.6722 129.297 55.6722 129.281 55.6768 129.267C55.6826 129.246 55.6826 129.224 55.6768 129.203C55.6897 129.114 55.7113 129.027 55.7411 128.942C55.7892 128.756 55.8608 128.578 55.9544 128.41C56.1351 128.038 56.3505 127.683 56.5976 127.351C56.6992 127.199 56.8007 127.06 56.9056 126.928L56.9463 126.884C57.0523 126.782 57.1573 126.677 57.2611 126.569C57.2787 126.547 57.2903 126.522 57.2949 126.494C57.333 126.457 57.3795 126.429 57.4304 126.413C57.4779 126.407 57.5239 126.393 57.5658 126.369V126.393C57.5659 126.404 57.5684 126.416 57.5731 126.426C57.5777 126.437 57.5844 126.446 57.5928 126.454C57.6233 126.494 57.7113 126.501 57.8501 126.478C57.9889 126.454 58.0735 126.4 58.0938 126.329L58.1311 126.237C58.1507 126.192 58.1571 126.142 58.1493 126.094C58.1415 126.045 58.1199 126 58.0871 125.963C58.014 125.906 57.9255 125.873 57.8332 125.868C57.7197 125.856 57.6049 125.865 57.4947 125.895C57.3981 125.919 57.304 125.952 57.2137 125.993C57.0809 126.064 56.957 126.151 56.8447 126.251C56.7903 126.263 56.7415 126.292 56.7059 126.335L56.7262 126.312C56.7078 126.33 56.6874 126.346 56.6653 126.359L56.5637 126.43C56.4697 126.5 56.3835 126.579 56.3065 126.667L55.5651 127.307C55.2571 127.574 54.9558 127.825 54.6511 128.055L53.7337 128.763L52.8434 129.392L52.4575 129.639C52.4107 129.668 52.3621 129.694 52.3119 129.717L52.1697 129.771C52.1187 129.674 52.1009 129.562 52.119 129.453C52.1235 129.354 52.1371 129.255 52.1596 129.159C52.1833 129.081 52.2104 128.989 52.2442 128.884C52.2983 128.685 52.3732 128.492 52.4676 128.309C52.559 128.133 52.6471 127.947 52.7317 127.754C52.8163 127.561 52.8671 127.395 52.9213 127.212C52.979 127.027 52.9929 126.831 52.9619 126.64C52.941 126.592 52.9093 126.55 52.8694 126.517C52.8294 126.483 52.7823 126.459 52.7317 126.447C52.6424 126.413 52.5434 126.413 52.4541 126.447C52.1335 126.575 51.8361 126.754 51.5739 126.979C51.3102 127.204 51.0656 127.451 50.8427 127.716L50.9815 127.317L51.1406 126.897L51.2524 126.718C51.3065 126.684 51.3268 126.667 51.3133 126.67C51.3433 126.669 51.3727 126.662 51.3996 126.648C51.4265 126.635 51.4501 126.616 51.469 126.593C51.4849 126.567 51.4932 126.537 51.4932 126.506C51.4932 126.476 51.4849 126.446 51.469 126.42C51.4516 126.386 51.4272 126.357 51.3974 126.333C51.3676 126.31 51.3332 126.293 51.2964 126.285C51.2227 126.264 51.146 126.256 51.0696 126.261C50.9883 126.266 50.9099 126.293 50.8421 126.338C50.7744 126.383 50.7197 126.445 50.6836 126.518C50.6023 126.66 50.5288 126.805 50.4636 126.955C50.415 126.965 50.369 126.984 50.3282 127.012C49.9084 127.448 49.4932 127.868 49.0824 128.272C48.6697 128.683 48.216 129.05 47.7284 129.368L47.1258 129.741C46.939 129.858 46.7431 129.96 46.5401 130.046C46.4472 130.093 46.3431 130.115 46.2388 130.109C46.1345 130.102 46.0339 130.067 45.9477 130.008C45.8771 129.953 45.8259 129.876 45.8016 129.79C45.7772 129.704 45.781 129.612 45.8123 129.528L45.8597 129.308C45.8829 129.178 45.9157 129.05 45.9579 128.925C46.003 128.786 46.0561 128.649 46.117 128.515C46.14 128.458 46.1671 128.403 46.1982 128.35C46.2287 128.295 46.2558 128.241 46.2829 128.18C46.3675 128.018 46.4386 127.889 46.4961 127.801C46.5537 127.713 46.6045 127.635 46.6485 127.574C46.6925 127.513 46.7331 127.463 46.767 127.425C46.8045 127.378 46.8395 127.328 46.8719 127.276C46.878 127.254 46.891 127.234 46.9091 127.219C46.9281 127.205 46.9413 127.184 46.9464 127.161C46.9985 127.116 47.0322 127.054 47.0412 126.985V126.962C47.0378 126.932 47.0282 126.902 47.0131 126.876C46.9979 126.85 46.9775 126.827 46.9532 126.809C46.8998 126.762 46.8341 126.73 46.7636 126.718C46.6933 126.703 46.6206 126.703 46.5503 126.718C46.4864 126.727 46.4277 126.758 46.3844 126.806C46.3234 126.91 46.2531 127.009 46.1746 127.1C46.0959 127.194 46.0246 127.294 45.9613 127.398V127.419L45.3486 128.069L44.2247 129.49C44.0486 129.733 43.8515 129.959 43.6357 130.167C43.5616 130.255 43.4775 130.333 43.3851 130.401L43.094 130.618C43.0862 130.626 43.0768 130.633 43.0663 130.637C43.0559 130.642 43.0445 130.645 43.0331 130.645C42.9961 130.562 42.981 130.471 42.9891 130.381C42.9955 130.289 43.0091 130.199 43.0297 130.11C43.0836 129.911 43.1657 129.72 43.2734 129.545C43.3818 129.372 43.4935 129.206 43.612 129.033C43.728 128.868 43.8559 128.71 43.9945 128.563L44.377 128.157C44.6615 127.919 44.9675 127.708 45.291 127.527C45.2605 127.527 45.2673 127.527 45.291 127.527C45.3129 127.514 45.337 127.505 45.3621 127.5C45.3621 127.5 45.3892 127.48 45.4027 127.5C45.4091 127.505 45.4168 127.507 45.4247 127.507C45.4326 127.507 45.4404 127.505 45.4467 127.5H45.467C45.5018 127.518 45.5397 127.53 45.5788 127.534C45.6489 127.551 45.7219 127.551 45.792 127.534C45.8258 127.528 45.8571 127.513 45.8819 127.489C45.9067 127.466 45.9237 127.435 45.9308 127.402C45.9562 127.353 45.9616 127.296 45.9458 127.244C45.93 127.191 45.8942 127.147 45.8462 127.121C45.765 127.055 45.6687 127.01 45.5658 126.99C45.463 126.971 45.3569 126.977 45.2572 127.009C45.1708 127.028 45.0868 127.056 45.0067 127.094C44.7062 127.222 44.4193 127.379 44.1502 127.564C44.1345 127.562 44.1186 127.562 44.1028 127.564L43.727 127.821C43.5639 127.936 43.4069 128.059 43.2565 128.19L42.918 128.444C42.7961 128.532 42.6844 128.624 42.5795 128.719L41.4082 129.585C41.3801 129.617 41.3455 129.642 41.3066 129.66C41.2678 129.675 41.233 129.7 41.2051 129.731C40.9668 129.912 40.7156 130.076 40.4536 130.222L40.0473 130.469L39.5531 130.723C39.3923 130.805 39.226 130.876 39.0555 130.936L38.805 131.02C38.7237 131.054 38.6729 131.044 38.6526 130.99C38.6518 130.91 38.6598 130.831 38.6763 130.753C38.6951 130.619 38.7268 130.488 38.7711 130.36C38.8164 130.23 38.8707 130.104 38.9336 129.981C39.0235 129.745 39.1369 129.518 39.2721 129.304C39.3955 129.082 39.5323 128.867 39.6817 128.661C39.8273 128.454 39.9864 128.251 40.1557 128.052L40.3723 127.821L40.4536 127.75L40.5687 127.612C40.5753 127.577 40.5745 127.541 40.5664 127.507C40.5582 127.472 40.5428 127.44 40.5213 127.412C40.4888 127.373 40.4538 127.337 40.4163 127.304H40.4366C40.3852 127.274 40.3268 127.258 40.2674 127.258C40.208 127.258 40.1496 127.274 40.0981 127.304L39.7393 127.612L39.4448 127.95C39.351 128.042 39.2661 128.143 39.1909 128.251C39.1151 128.352 39.045 128.457 38.981 128.566C38.8358 128.784 38.7035 129.01 38.5849 129.243C38.4631 129.487 38.348 129.737 38.2464 129.988C38.1849 130.108 38.135 130.234 38.0975 130.364C38.054 130.494 38.0212 130.628 37.9993 130.763C37.9741 130.85 37.9681 130.941 37.9817 131.031C37.9954 131.12 38.0283 131.205 38.0782 131.281C38.1281 131.356 38.1939 131.42 38.2708 131.467C38.3478 131.515 38.4342 131.545 38.524 131.555C38.7307 131.581 38.9405 131.564 39.1401 131.505C39.3551 131.444 39.5645 131.366 39.7664 131.271C39.9627 131.176 40.1252 131.098 40.2471 131.031C40.3689 130.963 40.5348 130.882 40.7007 130.79C40.8665 130.699 41.0053 130.611 41.1272 130.53C41.5774 130.249 41.9769 129.981 42.3256 129.724L42.5456 129.555L42.4915 129.656C42.3822 129.891 42.33 130.149 42.3391 130.408C42.3508 130.525 42.3829 130.64 42.4339 130.746C42.4808 130.859 42.5627 130.954 42.6675 131.017C42.7996 131.099 42.9521 131.142 43.1076 131.142C43.2473 131.137 43.3839 131.1 43.507 131.034C43.7201 130.944 43.9125 130.812 44.0723 130.645C44.184 130.561 44.2812 130.459 44.3601 130.343C44.4434 130.222 44.5375 130.109 44.6411 130.005L44.9457 129.666C45.0455 129.559 45.1393 129.446 45.2267 129.328C45.1987 129.484 45.1874 129.643 45.1928 129.802C45.1954 129.954 45.2491 130.1 45.3452 130.218C45.4206 130.33 45.5211 130.423 45.6386 130.489C45.7561 130.556 45.8874 130.594 46.0222 130.601C46.2932 130.629 46.5669 130.618 46.8347 130.567C47.0146 130.515 47.1883 130.443 47.3526 130.354C47.5422 130.252 47.8435 130.062 48.2463 129.788C48.3709 129.713 48.4897 129.628 48.6017 129.534C48.7033 129.446 48.8387 129.338 49.0147 129.196C49.2619 129.006 49.492 128.81 49.7121 128.61C49.6139 128.793 49.5191 128.976 49.4277 129.162C49.2205 129.594 49.0396 130.038 48.8861 130.492C48.8737 130.518 48.8714 130.547 48.8795 130.574C48.8877 130.601 48.9057 130.624 48.9301 130.638C48.9725 130.673 49.0222 130.699 49.0757 130.712C49.1496 130.735 49.2256 130.751 49.3025 130.76C49.3389 130.765 49.376 130.758 49.4079 130.739C49.4397 130.721 49.4646 130.692 49.4785 130.658C49.5022 130.628 49.5225 130.611 49.5361 130.611C49.7933 130.272 50.0371 129.91 50.2639 129.555C50.4907 129.199 50.7344 128.854 50.9951 128.519C51.188 128.275 51.3979 128.031 51.618 127.784C51.8372 127.541 52.0863 127.326 52.3593 127.144C52.3415 127.25 52.3109 127.354 52.2679 127.452C52.2239 127.54 52.1867 127.628 52.1494 127.72C52.0524 127.925 51.9542 128.122 51.8549 128.309C51.7565 128.496 51.6793 128.694 51.6247 128.898C51.5677 129.075 51.5292 129.258 51.5096 129.443C51.4896 129.629 51.539 129.816 51.6484 129.968C51.7345 130.092 51.8579 130.186 52.0009 130.236C52.1439 130.286 52.299 130.289 52.4439 130.245C52.7084 130.175 52.959 130.06 53.1853 129.907C53.3299 129.829 53.47 129.743 53.6051 129.649C53.7337 129.558 53.8725 129.467 54.0215 129.368C54.5428 128.989 55.0314 128.617 55.4872 128.251C55.366 128.489 55.2663 128.737 55.1894 128.993C55.1453 129.148 55.1292 129.309 55.142 129.47C55.1566 129.631 55.2218 129.782 55.3281 129.903C55.4152 130.004 55.5353 130.07 55.6667 130.09C55.7981 130.12 55.9347 130.12 56.0661 130.09C56.3418 130.035 56.5979 129.908 56.8075 129.721C57.0309 129.524 57.2374 129.331 57.4236 129.145C57.6098 128.959 57.7418 128.807 57.8975 128.651C57.9189 128.912 58.0402 129.154 58.236 129.328C58.36 129.431 58.5038 129.509 58.6586 129.555C58.8135 129.601 58.9761 129.614 59.1365 129.595C59.2859 129.57 59.433 129.532 59.5766 129.484C59.7117 129.437 59.843 129.381 59.9693 129.314C60.31 129.144 60.6312 128.938 60.9273 128.698C61.2015 128.509 61.4655 128.306 61.7228 128.096C61.6635 128.292 61.6635 128.502 61.7228 128.698C61.8055 128.886 61.9501 129.04 62.1324 129.135C62.312 129.233 62.5106 129.29 62.7147 129.304C63.0607 129.289 63.4027 129.224 63.7302 129.111C64.0465 129.006 64.3515 128.87 64.6408 128.705C64.8846 128.57 65.1114 128.431 65.3179 128.292C65.3377 128.332 65.3654 128.368 65.3991 128.397C65.4347 128.428 65.4686 128.461 65.5007 128.495L65.6056 128.593C65.6835 128.671 65.7613 128.749 65.8392 128.82L66.0728 129.047L66.5738 129.436C66.6911 129.564 66.8311 129.668 66.9868 129.744C67.0625 129.767 67.1393 129.787 67.217 129.802C67.2928 129.816 67.371 129.805 67.4404 129.771C67.4685 129.772 67.4962 129.765 67.5211 129.752C67.546 129.739 67.5671 129.72 67.5826 129.697C67.6481 129.628 67.6927 129.543 67.7112 129.45L67.762 129.253C67.8466 129.253 67.9346 129.233 68.026 129.22C68.1174 129.206 68.2054 129.186 68.2901 129.165C68.656 129.08 69.0114 128.954 69.3496 128.79C69.6374 128.644 69.9658 128.451 70.3348 128.228C70.6056 128.048 70.8662 127.862 71.1235 127.669C71.3808 127.476 71.6279 127.28 71.8683 127.073C72.0102 126.959 72.1458 126.837 72.2745 126.708C72.376 126.606 72.5047 126.484 72.6638 126.342L72.8939 126.122C72.965 126.051 73.0327 125.977 73.1004 125.902L73.3374 125.655C73.4075 125.58 73.4719 125.499 73.5304 125.415C73.5526 125.375 73.559 125.328 73.5484 125.283C73.5377 125.239 73.5108 125.2 73.4728 125.174ZM59.0722 125.926L59.2854 125.394C59.3509 125.235 59.4243 125.079 59.5055 124.927C59.5664 124.778 59.6274 124.639 59.6951 124.504C59.7628 124.369 59.8271 124.237 59.888 124.101C60.3612 123.162 60.9115 122.264 61.5332 121.417C61.7228 121.146 61.9293 120.878 62.1527 120.618C62.176 120.588 62.2021 120.561 62.2306 120.536C62.2593 120.511 62.2864 120.484 62.3118 120.455L62.3491 120.408L62.4269 120.316C62.5826 120.13 62.6639 120.076 62.6706 120.147C62.6826 120.196 62.6826 120.247 62.6706 120.296C62.6503 120.371 62.63 120.438 62.6131 120.506C62.5945 120.578 62.5684 120.649 62.5352 120.716C62.4731 120.883 62.4007 121.045 62.3186 121.203L62.1764 121.461C62.1358 121.545 62.0884 121.63 62.0376 121.721C61.8772 121.952 61.7324 122.193 61.6043 122.442C61.2793 123.011 60.9352 123.561 60.5718 124.091C60.2096 124.619 59.8406 125.15 59.4716 125.679L58.9131 126.434C58.9605 126.264 59.0146 126.092 59.0722 125.926ZM64.045 125.926C64.2144 125.78 64.4081 125.666 64.6171 125.587C64.6269 125.659 64.6269 125.732 64.6171 125.804C64.6129 125.835 64.6013 125.866 64.5833 125.892C64.4385 126.171 64.2499 126.424 64.0247 126.643C63.8268 126.841 63.6115 127.02 63.3815 127.178C63.218 127.295 63.0433 127.396 62.8602 127.48C62.7146 127.54 62.6571 127.557 62.6808 127.527L62.7756 127.368C62.9001 127.175 63.0394 126.991 63.192 126.819L63.2258 126.782L63.2597 126.752L63.3206 126.681L63.3477 126.65L63.605 126.366L63.7539 126.217C63.8016 126.173 63.8469 126.127 63.8893 126.078C63.9346 126.021 63.9869 125.97 64.045 125.926ZM67.3524 127.581C67.2847 127.974 67.2102 128.38 67.129 128.8H67.0003L66.9123 128.766H66.8886L66.8446 128.749C66.7759 128.736 66.7096 128.712 66.6483 128.678L66.5602 128.644L66.3097 128.492L66.2217 128.434L66.198 128.417L66.1506 128.377C66.1088 128.326 66.0623 128.28 66.0118 128.238C65.9892 128.222 65.9697 128.203 65.9543 128.18C65.9358 128.158 65.9154 128.138 65.8934 128.119C65.8718 128.073 65.8362 128.035 65.7918 128.011C66.0795 127.821 66.3538 127.628 66.6076 127.429C66.9462 127.165 67.261 126.914 67.5555 126.677L67.5894 126.65C67.489 126.955 67.4098 127.266 67.3524 127.581Z" fill="#FBBE42"/>
<path d="M92.9961 123.4C92.9207 123.365 92.8388 123.347 92.7558 123.346C92.7116 123.346 92.6682 123.356 92.6288 123.376C92.5894 123.396 92.5552 123.425 92.529 123.461C92.1987 123.852 91.8461 124.224 91.4728 124.574C91.1072 124.92 90.7247 125.258 90.3252 125.59C89.963 125.894 89.577 126.17 89.1709 126.412C89.0625 126.48 88.9644 126.538 88.873 126.589C88.7662 126.647 88.6524 126.691 88.5345 126.721L88.3923 126.778C88.1147 126.886 87.9624 126.778 87.9387 126.494V126.406V126.385L87.9793 126.047C87.9996 125.959 88.0233 125.871 88.0504 125.773C88.0774 125.675 88.1045 125.587 88.1248 125.498C88.2459 125.161 88.4073 124.839 88.6055 124.54C88.6386 124.471 88.6759 124.403 88.7172 124.337C88.7568 124.273 88.8021 124.211 88.8526 124.155L88.9677 124.016C88.9406 124.046 88.9339 124.063 88.9407 124.063C88.9474 124.063 88.9407 124.063 88.9711 124.039L89.0287 123.968C89.0517 123.945 89.0649 123.913 89.0659 123.88C89.0896 123.836 89.0964 123.826 89.0659 123.847C89.0354 123.867 89.0456 123.874 89.0456 123.847C89.0648 123.818 89.0751 123.784 89.0751 123.75C89.0751 123.716 89.0648 123.682 89.0456 123.654C89.0064 123.599 88.9505 123.559 88.8865 123.538C88.817 123.513 88.7437 123.501 88.6698 123.501C88.5998 123.499 88.5306 123.517 88.4701 123.552C88.3027 123.683 88.1495 123.832 88.0131 123.995C87.9082 124.104 87.8066 124.215 87.7118 124.334L87.4072 124.672C87.16 124.95 86.9095 125.231 86.6624 125.515C86.4153 125.8 86.158 126.077 85.894 126.341L85.7958 126.436L85.7552 126.48L85.7349 126.504L85.5588 126.69L85.1967 126.978L84.8581 127.218C84.8538 127.225 84.8478 127.231 84.8407 127.235C84.8336 127.239 84.8257 127.241 84.8175 127.242C84.8446 127.228 84.8446 127.228 84.8175 127.242C84.798 127.25 84.7807 127.263 84.7667 127.279C84.699 127.299 84.6618 127.296 84.6584 127.279C84.6401 127.255 84.6306 127.225 84.6313 127.194C84.6278 127.17 84.6278 127.145 84.6313 127.12C84.635 127.095 84.635 127.07 84.6313 127.046C84.6573 126.897 84.6946 126.751 84.743 126.609L84.9089 126.25C84.9326 126.192 84.9597 126.118 84.9969 126.03C85.0157 125.976 85.0395 125.924 85.068 125.874L85.5182 125.085C85.5792 124.967 85.6502 124.852 85.7247 124.747C85.8015 124.638 85.8716 124.525 85.9346 124.408L86.1039 124.138L86.158 124.026L86.1987 123.982C86.2043 123.981 86.2095 123.978 86.2132 123.974C86.217 123.97 86.219 123.964 86.2189 123.958C86.2968 123.894 86.3137 123.83 86.2663 123.762C86.2374 123.712 86.1919 123.674 86.1377 123.654C86.0784 123.634 86.0171 123.622 85.9549 123.616C85.8913 123.603 85.8256 123.603 85.762 123.616C85.7228 123.621 85.6855 123.636 85.6536 123.659C85.6216 123.682 85.596 123.713 85.5792 123.748C85.5598 123.766 85.5466 123.79 85.5419 123.816L85.4268 123.975C85.3885 124.05 85.3512 124.117 85.3151 124.178L85.2745 124.239C85.2628 124.247 85.2534 124.257 85.2474 124.27C85.2348 124.29 85.2173 124.306 85.1967 124.317L84.8988 124.598L84.5399 124.937L84.1608 125.275C83.8696 125.542 83.5683 125.8 83.2603 126.047C82.9522 126.294 82.6374 126.531 82.3125 126.758C82.177 126.853 82.0416 126.944 81.9062 127.025C81.7689 127.108 81.6238 127.177 81.4729 127.232C81.4058 127.263 81.3368 127.29 81.2664 127.313C81.2368 127.317 81.2081 127.326 81.1818 127.34C81.1547 127.34 81.1547 127.34 81.1818 127.34C81.2088 127.34 81.2088 127.34 81.1818 127.34C81.164 127.356 81.1414 127.366 81.1175 127.367H81.0328H81.0125H80.9482L80.9042 127.347H80.8602C80.8128 127.308 80.7891 127.281 80.7891 127.266L80.7654 127.249C80.7654 127.222 80.7315 127.194 80.718 127.167C80.7061 127.146 80.6981 127.123 80.6943 127.1C80.6802 127.086 80.6708 127.068 80.6672 127.049C80.6709 127.039 80.6709 127.028 80.6672 127.018C80.6611 127.001 80.6611 126.982 80.6672 126.964L80.6469 126.751V126.541V126.517V126.453C80.6584 126.411 80.6584 126.367 80.6469 126.324C80.6469 126.264 80.6672 126.203 80.6774 126.142C80.6875 126.081 80.7823 126.02 80.8331 125.955C81.219 125.461 81.6016 124.94 81.9705 124.439C82.4986 123.712 83.0064 122.978 83.4939 122.235C83.9847 121.494 84.4451 120.736 84.8818 119.957C84.9841 119.79 85.0778 119.618 85.1628 119.442C85.2482 119.264 85.3184 119.078 85.3726 118.887C85.425 118.755 85.457 118.616 85.4674 118.474C85.4776 118.402 85.4704 118.328 85.4462 118.259C85.4221 118.19 85.3817 118.128 85.3286 118.078C85.2343 117.971 85.1018 117.906 84.9597 117.895C84.8212 117.877 84.6803 117.888 84.5467 117.929C84.423 117.98 84.3086 118.051 84.2082 118.139C84.11 118.224 84.0118 118.315 83.9204 118.406C83.6737 118.646 83.4472 118.905 83.2434 119.182C83.0403 119.463 82.8473 119.744 82.6713 120.031C82.4952 120.319 82.3327 120.519 82.1973 120.766C82.0619 121.013 81.9028 121.264 81.7641 121.517C81.667 121.696 81.5722 121.879 81.4797 122.066L81.1919 122.638C81.0193 122.977 80.8534 123.315 80.7214 123.684C80.5894 124.053 80.4506 124.398 80.3389 124.764C80.2241 125.096 80.1302 125.435 80.0579 125.779C80.0579 125.844 80.0376 125.905 80.0308 125.969C79.8785 126.148 79.7228 126.331 79.5603 126.507C79.2996 126.815 79.0593 127.076 78.8325 127.296C78.6145 127.509 78.3712 127.694 78.108 127.848L78.1283 127.824C78.1202 127.825 78.1122 127.827 78.1051 127.831C78.098 127.835 78.0921 127.841 78.0877 127.848C78.07 127.843 78.0512 127.843 78.0336 127.848C78.0235 127.85 78.0131 127.85 78.0031 127.848C77.9895 127.848 77.9759 127.845 77.964 127.839C77.9521 127.832 77.9422 127.822 77.9354 127.811C77.9036 127.744 77.8907 127.67 77.8981 127.597V127.513C77.8935 127.498 77.8935 127.483 77.8981 127.469C77.9021 127.447 77.9021 127.426 77.8981 127.404C77.911 127.316 77.9326 127.228 77.9625 127.144C78.0105 126.958 78.0821 126.78 78.1757 126.612C78.3564 126.24 78.5718 125.885 78.8189 125.553C78.9205 125.4 79.022 125.262 79.127 125.129C79.2332 124.997 79.3462 124.871 79.4655 124.75C79.5125 124.685 79.5806 124.637 79.6584 124.615C79.706 124.609 79.752 124.594 79.7938 124.571V124.595C79.7933 124.606 79.7955 124.618 79.8002 124.628C79.8049 124.639 79.812 124.648 79.8209 124.656C79.8514 124.696 79.936 124.703 80.0782 124.676C80.2204 124.649 80.3016 124.601 80.322 124.527L80.3592 124.439C80.3896 124.31 80.3592 124.219 80.3152 124.165C80.2417 124.108 80.1536 124.074 80.0613 124.067C79.9475 124.056 79.8327 124.066 79.7228 124.097C79.626 124.12 79.5319 124.153 79.4418 124.195C79.2551 124.292 79.0848 124.418 78.9374 124.568C78.7909 124.718 78.6531 124.876 78.5244 125.041C78.4093 125.195 78.2965 125.351 78.1859 125.509C78.0775 125.668 77.9726 125.827 77.8711 125.993C77.6474 126.355 77.471 126.744 77.3463 127.15C77.3027 127.304 77.2866 127.465 77.2989 127.624C77.3129 127.786 77.3782 127.939 77.4851 128.061C77.5723 128.161 77.6923 128.227 77.8237 128.247C77.9551 128.278 78.0917 128.278 78.2231 128.247C78.4976 128.192 78.7524 128.065 78.9611 127.878C79.1879 127.679 79.3944 127.489 79.5806 127.303C79.7668 127.117 79.8988 126.964 80.0545 126.809C80.0637 126.938 80.0983 127.065 80.1564 127.181C80.2145 127.297 80.2949 127.401 80.393 127.486C80.517 127.589 80.6608 127.666 80.8156 127.712C80.9705 127.758 81.1331 127.772 81.2935 127.753C81.4429 127.727 81.59 127.69 81.7336 127.641C81.8693 127.596 82.0007 127.538 82.1262 127.469C82.4669 127.3 82.7881 127.094 83.0842 126.856C83.4228 126.629 83.7207 126.389 84.022 126.138L84.3605 125.844C84.2637 126.042 84.1779 126.245 84.1032 126.453C84.0509 126.583 84.0113 126.718 83.9847 126.856C83.949 127 83.949 127.152 83.9847 127.296C84.0028 127.368 84.0356 127.435 84.081 127.493C84.1265 127.551 84.1836 127.6 84.2488 127.635C84.3847 127.709 84.5345 127.755 84.6889 127.77C84.8245 127.788 84.9625 127.77 85.0883 127.716C85.2085 127.663 85.3221 127.596 85.4268 127.516C85.5487 127.435 85.6705 127.347 85.7924 127.249C85.9143 127.15 86.026 127.059 86.1309 126.964C86.2764 126.842 86.4133 126.709 86.5406 126.568C86.6624 126.429 86.7911 126.291 86.9231 126.152C86.9874 126.074 87.0517 126.01 87.1093 125.952C87.1766 125.891 87.2399 125.825 87.2988 125.756C87.2667 125.895 87.2418 126.037 87.2244 126.179C87.2067 126.319 87.2182 126.46 87.2582 126.595C87.3078 126.793 87.4283 126.965 87.5967 127.079C87.7688 127.194 87.9724 127.252 88.179 127.245C88.4239 127.255 88.6679 127.21 88.8933 127.113C89.1259 127.015 89.352 126.902 89.5703 126.775C89.7768 126.656 89.9765 126.531 90.1729 126.392C90.3692 126.253 90.5588 126.108 90.745 125.949C91.5452 125.308 92.2904 124.602 92.9725 123.836L93.1282 123.654C93.1435 123.644 93.1562 123.63 93.165 123.614C93.1737 123.598 93.1784 123.58 93.1784 123.562C93.1784 123.544 93.1737 123.526 93.165 123.51C93.1562 123.494 93.1435 123.481 93.1282 123.471C93.0855 123.445 93.0414 123.421 92.9961 123.4ZM81.2461 124.107L81.4594 123.576C81.5227 123.415 81.5962 123.259 81.6794 123.109C81.7352 122.964 81.7984 122.823 81.869 122.685C81.9367 122.55 82.001 122.418 82.0619 122.283C82.5316 121.342 83.0784 120.442 83.697 119.591C83.8866 119.32 84.093 119.053 84.3165 118.792C84.3398 118.763 84.3659 118.736 84.3944 118.711C84.4228 118.687 84.4489 118.659 84.4722 118.63L84.5128 118.583L84.5907 118.491C84.7464 118.305 84.8276 118.247 84.8344 118.322C84.8463 118.371 84.8463 118.422 84.8344 118.471C84.8107 118.545 84.7938 118.613 84.7768 118.681C84.7583 118.753 84.7322 118.823 84.699 118.891C84.6369 119.057 84.5645 119.22 84.4823 119.378L84.3402 119.635C84.2962 119.72 84.2522 119.805 84.2014 119.893C84.0416 120.125 83.8969 120.367 83.7681 120.617C83.4431 121.186 83.1046 121.735 82.7525 122.266C82.3903 122.794 82.0213 123.325 81.6523 123.853L81.0938 124.608C81.1344 124.446 81.1852 124.273 81.2461 124.107Z" fill="#FBBE42"/>
<path d="M116.165 117.624C116.504 117.038 116.866 116.449 117.232 115.864L117.533 115.346C117.559 115.318 117.573 115.282 117.573 115.244C117.573 115.207 117.559 115.17 117.533 115.143C117.485 115.089 117.426 115.046 117.36 115.017C117.162 114.925 116.936 114.909 116.727 114.973C116.518 115.044 116.32 115.143 116.138 115.268C115.979 115.397 115.827 115.525 115.688 115.657C115.549 115.789 115.407 115.935 115.265 116.091L115.126 116.229C115.153 116.199 115.15 116.192 115.126 116.209C115.102 116.226 115.126 116.229 115.126 116.229C115.126 116.229 115.126 116.229 115.126 116.253L115.085 116.277L114.896 116.463C114.838 116.527 114.774 116.588 114.71 116.653L114.334 117.025C114.108 117.271 113.882 117.515 113.657 117.756C113.42 117.996 113.19 118.247 112.98 118.508L111.724 119.94C111.306 120.418 110.911 120.908 110.539 121.409C110.167 121.91 109.816 122.385 109.486 122.834C109.148 123.31 108.809 123.791 108.471 124.276C108.291 124.537 108.112 124.787 107.932 125.041L107.394 125.779C107.29 125.901 107.196 126.031 107.113 126.168C107.032 126.304 106.947 126.439 106.859 126.575C106.913 126.368 106.968 126.178 107.025 126.002C107.147 125.634 107.289 125.272 107.452 124.919L107.489 124.851L107.509 124.828L107.56 124.672C107.584 124.629 107.606 124.585 107.624 124.54L107.685 124.384L107.963 123.846L108.813 122.153C108.911 121.974 108.999 121.791 109.077 121.608C109.154 121.426 109.236 121.239 109.324 121.063C109.493 120.725 109.662 120.386 109.798 120.048C109.933 119.709 110.092 119.391 110.251 119.049C110.41 118.707 110.515 118.403 110.654 118.084C110.793 117.766 110.918 117.438 111.033 117.099C111.067 116.981 111.101 116.876 111.135 116.761C111.172 116.659 111.199 116.553 111.216 116.446C111.237 116.361 111.248 116.273 111.25 116.185C111.249 116.141 111.238 116.098 111.218 116.059C111.198 116.02 111.17 115.986 111.135 115.959C111.101 115.918 111.06 115.885 111.014 115.861C110.967 115.837 110.916 115.823 110.864 115.82C110.756 115.807 110.646 115.827 110.549 115.877C110.059 116.159 109.615 116.514 109.232 116.93C108.843 117.347 108.477 117.776 108.129 118.22C107.96 118.447 107.79 118.674 107.638 118.897C107.486 119.12 107.299 119.344 107.123 119.574C106.947 119.804 106.693 120.099 106.504 120.363C106.314 120.627 106.111 120.898 105.905 121.172C105.532 121.689 105.171 122.204 104.821 122.719C104.472 123.233 104.133 123.754 103.806 124.279C104.21 123.447 104.603 122.618 104.984 121.795C105.366 120.972 105.729 120.129 106.074 119.273L106.649 117.685C106.697 117.536 106.741 117.394 106.788 117.255C106.836 117.116 106.876 116.964 106.92 116.805C107.036 116.449 107.132 116.088 107.208 115.722C107.283 115.357 107.305 114.983 107.276 114.611C107.266 114.46 107.236 114.311 107.188 114.168C107.14 114.029 107.06 113.904 106.954 113.802C106.82 113.672 106.652 113.582 106.47 113.542C106.291 113.499 106.104 113.499 105.925 113.542C105.679 113.576 105.44 113.646 105.214 113.748C104.986 113.849 104.767 113.968 104.557 114.103C104.223 114.313 103.906 114.55 103.61 114.811C103.315 115.072 103.031 115.342 102.753 115.62C102.372 116.023 102.017 116.449 101.69 116.896C101.363 117.348 101.055 117.813 100.766 118.291C100.427 118.863 100.113 119.449 99.8283 120.051C99.5422 120.651 99.2957 121.268 99.0903 121.9C98.9264 122.375 98.7974 122.861 98.7043 123.355C98.6102 123.849 98.5693 124.352 98.5825 124.855C98.5879 125.076 98.6163 125.296 98.6671 125.512C98.714 125.734 98.833 125.935 99.0056 126.084C99.0783 126.134 99.1568 126.174 99.2392 126.206C99.3187 126.237 99.4069 126.237 99.4863 126.206C99.518 126.191 99.5463 126.169 99.5696 126.143C99.5928 126.117 99.6106 126.086 99.6218 126.053C99.6335 126.022 99.6341 125.987 99.6237 125.955C99.6132 125.923 99.5923 125.896 99.5642 125.877L99.4965 125.84C99.4672 125.813 99.4672 125.813 99.4965 125.84C99.5259 125.867 99.5259 125.867 99.4965 125.84C99.4808 125.817 99.4682 125.792 99.4593 125.765L99.4186 125.694C99.3653 125.594 99.3309 125.485 99.3171 125.373C99.3171 125.237 99.29 125.099 99.2832 124.956C99.2765 124.814 99.2832 124.675 99.2832 124.537C99.2832 124.398 99.3035 124.29 99.3103 124.198C99.3779 123.64 99.4912 123.089 99.6488 122.55C99.8098 122.008 99.9985 121.474 100.214 120.952C100.452 120.344 100.734 119.755 101.057 119.188C101.396 118.619 101.734 118.071 102.1 117.539C102.252 117.313 102.411 117.096 102.58 116.889C102.75 116.683 102.919 116.473 103.108 116.256C103.298 116.04 103.4 115.918 103.552 115.783L104.016 115.326C104.165 115.2 104.307 115.082 104.449 114.97C104.591 114.858 104.733 114.753 104.882 114.655L105.292 114.408L105.454 114.307H105.482V114.29C105.496 114.292 105.511 114.292 105.526 114.29C105.539 114.285 105.553 114.285 105.566 114.29C105.665 114.235 105.77 114.191 105.878 114.158L106.023 114.1H106.084C106.116 114.082 106.152 114.072 106.189 114.07H106.297L106.321 114.09C106.336 114.086 106.351 114.086 106.365 114.09C106.378 114.1 106.386 114.115 106.389 114.131L106.44 114.215V114.256V114.225C106.442 114.242 106.442 114.259 106.44 114.276C106.472 114.342 106.493 114.413 106.5 114.486C106.5 114.557 106.5 114.628 106.517 114.699V114.808C106.517 114.835 106.517 114.889 106.517 114.967C106.517 115.045 106.5 115.116 106.49 115.173L106.409 115.739C106.338 116.077 106.257 116.395 106.169 116.71C106.076 117.03 105.963 117.343 105.83 117.648C105.725 117.942 105.627 118.233 105.529 118.518C105.431 118.802 105.322 119.097 105.19 119.391C105.058 119.686 104.95 119.984 104.821 120.278C104.693 120.573 104.568 120.87 104.436 121.168C104.168 121.761 103.901 122.346 103.626 122.925C103.352 123.504 103.075 124.086 102.794 124.665C102.513 125.244 102.211 125.833 101.93 126.419C101.649 127.004 101.379 127.604 101.115 128.21C100.979 128.508 100.857 128.802 100.746 129.097C100.634 129.391 100.512 129.689 100.38 129.987C100.346 130.075 100.312 130.163 100.285 130.251L100.19 130.535L100.008 130.938C99.9467 131.07 99.8892 131.212 99.8283 131.358C99.7466 131.542 99.6765 131.731 99.6184 131.923C99.5602 132.109 99.5328 132.304 99.5371 132.499C99.5334 132.535 99.542 132.572 99.5616 132.604C99.5813 132.635 99.6107 132.659 99.6454 132.671C99.7068 132.703 99.7701 132.73 99.835 132.753C99.9099 132.768 99.987 132.768 100.062 132.753C100.097 132.748 100.131 132.735 100.161 132.716C100.191 132.697 100.216 132.671 100.234 132.641C100.374 132.447 100.483 132.232 100.556 132.004C100.631 131.774 100.702 131.544 100.769 131.327C100.803 131.212 100.834 131.101 100.861 130.989L100.949 130.65C101.084 130.366 101.226 130.085 101.372 129.801C101.517 129.516 101.67 129.242 101.819 128.971C102.141 128.375 102.472 127.788 102.811 127.208C103.149 126.628 103.502 126.052 103.87 125.481C104.222 124.912 104.582 124.348 104.95 123.789C105.318 123.229 105.7 122.665 106.098 122.096C106.47 121.568 106.849 121.053 107.238 120.559C107.628 120.065 108.004 119.543 108.376 119.039C108.674 118.643 108.972 118.257 109.28 117.885C109.585 117.507 109.925 117.159 110.295 116.845L110.19 117.113C110.062 117.451 109.926 117.79 109.791 118.108L109.368 119.107L109.259 119.354C109.256 119.361 109.254 119.368 109.254 119.376C109.254 119.384 109.256 119.391 109.259 119.398C109.247 119.409 109.24 119.425 109.239 119.442C109.202 119.487 109.178 119.541 109.168 119.598C109.131 119.672 109.094 119.753 109.06 119.841C109.025 119.928 108.982 120.011 108.931 120.089L108.532 120.979L108.037 122.025C107.706 122.682 107.367 123.337 107.022 123.992C106.684 124.644 106.399 125.324 106.172 126.023C106.085 126.301 106.022 126.587 105.983 126.876C105.966 126.988 105.966 127.102 105.983 127.214C106 127.335 106.043 127.45 106.108 127.553C106.175 127.65 106.277 127.719 106.392 127.746C106.448 127.768 106.509 127.775 106.568 127.766C106.628 127.757 106.684 127.733 106.731 127.695C106.947 127.485 107.146 127.259 107.326 127.018C107.503 126.781 107.679 126.534 107.855 126.277L108.819 124.956C109.151 124.473 109.49 123.988 109.835 123.501C110.18 123.013 110.53 122.528 110.884 122.045C111.257 121.558 111.638 121.077 112.029 120.603C112.418 120.126 112.824 119.659 113.244 119.195C113.464 118.934 113.691 118.684 113.921 118.443C114.151 118.203 114.374 117.952 114.598 117.692L115.309 116.967L115.647 116.629C115.647 116.646 115.647 116.653 115.647 116.653L115.668 116.629C115.683 116.606 115.703 116.587 115.725 116.571C115.743 116.556 115.756 116.536 115.762 116.514C115.825 116.469 115.883 116.418 115.935 116.361C115.987 116.299 116.042 116.24 116.101 116.185C116.118 116.163 116.139 116.144 116.162 116.128C116.177 116.118 116.189 116.105 116.199 116.091L116.219 116.067C116.228 116.067 116.236 116.064 116.243 116.06C116.25 116.056 116.256 116.05 116.26 116.043C116.148 116.226 116.037 116.409 115.921 116.595C115.806 116.781 115.705 116.967 115.583 117.147C115.143 117.898 114.71 118.646 114.286 119.398C113.863 120.149 113.447 120.901 113.037 121.663C112.827 122.053 112.621 122.449 112.418 122.851C112.215 123.25 112.015 123.653 111.819 124.056C111.622 124.459 111.436 124.835 111.263 125.227C111.089 125.618 110.938 126.019 110.813 126.429C110.764 126.595 110.725 126.763 110.695 126.933C110.661 127.117 110.651 127.305 110.668 127.492C110.676 127.663 110.73 127.829 110.823 127.973C110.875 128.044 110.94 128.105 111.016 128.15C111.092 128.196 111.176 128.225 111.263 128.237C111.344 128.259 111.43 128.259 111.511 128.237C111.551 128.229 111.589 128.21 111.619 128.181C111.648 128.152 111.668 128.115 111.676 128.074C111.689 128.043 111.691 128.01 111.683 127.977C111.675 127.945 111.658 127.916 111.632 127.895C111.581 127.853 111.524 127.818 111.463 127.79C111.456 127.786 111.45 127.78 111.445 127.773C111.44 127.766 111.437 127.758 111.436 127.749C111.442 127.726 111.442 127.702 111.436 127.678C111.434 127.653 111.434 127.628 111.436 127.604V127.519V127.455L111.456 127.174C111.475 127.059 111.501 126.946 111.534 126.835C111.568 126.717 111.602 126.602 111.632 126.497C111.769 126.075 111.928 125.662 112.11 125.258L112.164 125.146C112.168 125.123 112.178 125.101 112.191 125.082C112.211 125.051 112.255 124.953 112.33 124.791L112.584 124.235C112.973 123.416 113.386 122.614 113.819 121.818C114.253 121.023 114.696 120.234 115.146 119.449C115.48 118.817 115.82 118.209 116.165 117.624Z" fill="#FBBE42"/>
<path d="M106.415 114.212C106.415 114.212 106.413 114.205 106.415 114.212V114.212Z" fill="#FBBE42"/>
<path d="M138.105 119.852L138.081 119.832L138.037 119.795L137.99 119.754H137.901H137.861C137.85 119.758 137.838 119.758 137.827 119.754H137.807C137.755 119.754 137.704 119.766 137.658 119.788C137.587 119.824 137.519 119.864 137.455 119.91C137.387 119.957 137.326 120.001 137.272 120.032C137.164 120.127 137.048 120.221 136.933 120.32C136.818 120.418 136.69 120.509 136.595 120.604C136.046 121.051 135.535 121.443 135.065 121.792C134.595 122.136 134.106 122.451 133.599 122.737C133.399 122.846 133.192 122.941 132.979 123.021C132.759 123.102 132.533 123.164 132.302 123.207H132.109C132.065 123.207 132.021 123.197 131.981 123.177C131.914 123.127 131.866 123.055 131.845 122.974C131.831 122.903 131.822 122.832 131.818 122.76V122.672C131.818 122.672 131.818 122.649 131.818 122.642C131.822 122.631 131.822 122.619 131.818 122.608C131.811 122.587 131.811 122.564 131.818 122.544C131.835 122.445 131.863 122.348 131.903 122.256L131.944 122.212C132.079 122.256 132.223 122.267 132.363 122.242C132.499 122.219 132.63 122.172 132.749 122.104C132.93 122.015 133.104 121.914 133.271 121.802C133.435 121.691 133.593 121.571 133.744 121.443C134.032 121.195 134.283 120.906 134.489 120.587C134.587 120.425 134.655 120.246 134.689 120.059C134.707 119.966 134.695 119.87 134.656 119.785C134.616 119.699 134.551 119.628 134.469 119.582C134.368 119.52 134.255 119.483 134.137 119.473C134.02 119.462 133.902 119.478 133.792 119.521C133.577 119.592 133.373 119.692 133.186 119.819C132.997 119.946 132.818 120.089 132.651 120.245C132.495 120.393 132.347 120.549 132.208 120.712L132.126 120.81L131.852 121.061L131.473 121.399C131.182 121.667 130.881 121.924 130.573 122.171C130.264 122.418 129.946 122.655 129.625 122.882C129.489 122.977 129.354 123.068 129.218 123.15C129.082 123.233 128.936 123.302 128.785 123.356C128.717 123.387 128.647 123.415 128.575 123.437C128.546 123.441 128.519 123.452 128.494 123.468C128.464 123.468 128.467 123.468 128.494 123.468C128.521 123.468 128.531 123.468 128.494 123.468C128.476 123.484 128.454 123.493 128.43 123.495H128.345H128.382H128.318L128.274 123.475L128.23 123.458C128.183 123.42 128.159 123.393 128.159 123.38L128.135 123.359L128.084 123.278C128.073 123.256 128.066 123.232 128.064 123.207C128.052 123.193 128.044 123.175 128.04 123.156C128.043 123.146 128.043 123.136 128.04 123.126C128.04 123.126 128.04 123.102 128.023 123.072V122.862V122.649V122.564C128.033 122.52 128.033 122.475 128.023 122.432C128.023 122.371 128.044 122.31 128.054 122.249C128.064 122.188 128.159 122.127 128.21 122.063C128.596 121.569 128.975 121.047 129.347 120.546C129.875 119.819 130.363 119.084 130.87 118.343C131.378 117.601 131.822 116.843 132.258 116.064C132.36 115.898 132.451 115.726 132.539 115.55C132.625 115.371 132.695 115.185 132.749 114.995C132.8 114.862 132.832 114.723 132.844 114.582C132.854 114.509 132.847 114.436 132.823 114.367C132.799 114.298 132.758 114.236 132.705 114.186C132.611 114.079 132.478 114.013 132.336 114.003C132.197 113.984 132.055 113.996 131.92 114.037C131.796 114.087 131.682 114.158 131.581 114.247C131.48 114.331 131.385 114.423 131.294 114.514C131.047 114.753 130.82 115.012 130.617 115.289C130.41 115.57 130.22 115.851 130.044 116.139C129.868 116.427 129.706 116.626 129.571 116.873C129.435 117.121 129.273 117.374 129.137 117.628C129.039 117.808 128.944 117.991 128.849 118.177L128.565 118.745C128.392 119.084 128.227 119.423 128.095 119.791C127.963 120.16 127.824 120.506 127.712 120.871C127.597 121.204 127.503 121.543 127.431 121.887C127.431 121.951 127.411 122.012 127.401 122.077C127.248 122.256 127.096 122.439 126.933 122.615C126.673 122.923 126.432 123.183 126.206 123.403C125.988 123.616 125.744 123.802 125.481 123.955V123.932C125.466 123.935 125.452 123.944 125.441 123.955C125.422 123.956 125.405 123.962 125.39 123.972C125.38 123.975 125.369 123.975 125.359 123.972C125.346 123.973 125.332 123.97 125.32 123.964C125.308 123.957 125.298 123.947 125.292 123.935C125.259 123.869 125.245 123.795 125.251 123.722V123.701V123.637C125.25 123.622 125.25 123.608 125.251 123.593C125.257 123.572 125.257 123.55 125.251 123.529C125.264 123.44 125.285 123.353 125.315 123.268C125.363 123.083 125.435 122.904 125.529 122.737C125.709 122.365 125.924 122.01 126.168 121.677C126.273 121.525 126.375 121.386 126.48 121.254L126.52 121.21L126.835 120.892C126.853 120.872 126.865 120.847 126.869 120.821C126.907 120.783 126.954 120.755 127.005 120.739C127.052 120.734 127.098 120.719 127.14 120.695V120.719C127.142 120.742 127.151 120.763 127.167 120.78C127.201 120.821 127.286 120.827 127.428 120.8C127.57 120.773 127.648 120.726 127.671 120.655L127.709 120.563C127.739 120.435 127.709 120.343 127.665 120.289C127.59 120.233 127.501 120.2 127.407 120.194C127.294 120.182 127.179 120.191 127.069 120.221C126.972 120.244 126.878 120.277 126.788 120.32C126.654 120.39 126.529 120.477 126.415 120.577C126.362 120.589 126.314 120.619 126.28 120.661L126.3 120.638C126.282 120.656 126.262 120.672 126.239 120.685L126.138 120.756C126.043 120.826 125.956 120.905 125.877 120.993L125.139 121.633C124.831 121.9 124.527 122.151 124.225 122.381L123.308 123.089L122.418 123.718L122.028 123.965C121.983 123.994 121.935 124.019 121.886 124.04C121.846 124.06 121.795 124.077 121.741 124.097C121.689 124 121.672 123.888 121.693 123.779C121.696 123.68 121.71 123.581 121.734 123.485C121.754 123.407 121.785 123.315 121.818 123.211C121.871 123.012 121.945 122.819 122.038 122.635C122.13 122.459 122.218 122.273 122.303 122.08C122.387 121.887 122.438 121.721 122.495 121.538C122.552 121.353 122.565 121.157 122.533 120.966C122.514 120.917 122.483 120.873 122.443 120.84C122.402 120.806 122.354 120.783 122.303 120.773C122.213 120.739 122.114 120.739 122.025 120.773C121.705 120.901 121.409 121.08 121.148 121.305C120.884 121.531 120.638 121.778 120.414 122.043L120.556 121.643L120.664 121.349L120.739 121.284C120.793 121.223 120.81 121.169 120.789 121.122L120.833 121.054C120.887 121.02 120.908 121.003 120.894 121.007C120.924 121.006 120.953 120.999 120.979 120.985C121.006 120.972 121.029 120.953 121.047 120.929C121.063 120.903 121.072 120.873 121.072 120.843C121.072 120.812 121.063 120.782 121.047 120.756C121.03 120.723 121.006 120.694 120.976 120.67C120.947 120.647 120.913 120.63 120.877 120.621C120.804 120.6 120.727 120.592 120.651 120.597C120.569 120.602 120.49 120.628 120.421 120.673C120.353 120.718 120.298 120.781 120.261 120.854C120.21 120.946 120.166 121.034 120.126 121.115C120.094 121.142 120.059 121.165 120.021 121.183C119.933 121.232 119.841 121.29 119.747 121.355L119.134 121.694C118.9 121.812 118.663 121.921 118.42 122.032C118.176 122.144 117.932 122.219 117.682 122.297H117.641V122.3C117.698 122.142 117.731 121.977 117.739 121.809C117.745 121.636 117.681 121.468 117.563 121.342C117.473 121.223 117.339 121.145 117.191 121.125C117.04 121.101 116.886 121.134 116.758 121.217C116.587 121.344 116.467 121.527 116.419 121.735C116.396 121.806 116.385 121.88 116.385 121.955C116.38 122.026 116.38 122.097 116.385 122.168C116.388 122.361 116.464 122.547 116.598 122.686L116.666 122.743C116.642 122.774 116.615 122.808 116.592 122.845L116.514 122.97C116.412 123.137 116.307 123.293 116.199 123.437C116.091 123.58 115.982 123.728 115.881 123.881C115.779 124.033 115.627 124.172 115.508 124.297C115.382 124.428 115.24 124.542 115.085 124.636L114.984 124.71C115.011 124.681 115.011 124.681 114.984 124.71C114.966 124.727 114.946 124.74 114.923 124.747C114.906 124.741 114.888 124.741 114.872 124.747C114.856 124.758 114.837 124.764 114.818 124.764H114.709C114.669 124.764 114.645 124.734 114.638 124.673V124.588V124.504C114.631 124.45 114.631 124.395 114.638 124.341C114.638 124.289 114.649 124.242 114.669 124.199C114.72 123.953 114.797 123.714 114.899 123.485C115.001 123.255 115.122 123.034 115.261 122.825C115.521 122.426 115.822 122.057 116.158 121.721C116.2 121.723 116.241 121.709 116.274 121.683C116.307 121.657 116.33 121.62 116.338 121.579C116.348 121.535 116.343 121.489 116.324 121.447C116.305 121.406 116.273 121.373 116.233 121.352C116.171 121.312 116.1 121.287 116.026 121.281C115.95 121.273 115.872 121.287 115.803 121.322C115.564 121.494 115.344 121.692 115.146 121.911C114.945 122.132 114.764 122.369 114.605 122.622C114.464 122.863 114.337 123.113 114.225 123.37C114.109 123.632 114.027 123.909 113.982 124.192C113.961 124.281 113.951 124.372 113.951 124.463C113.95 124.554 113.969 124.644 114.005 124.727C114.034 124.823 114.082 124.912 114.147 124.988C114.213 125.064 114.294 125.125 114.385 125.167C114.563 125.263 114.769 125.292 114.967 125.248C115.162 125.203 115.351 125.137 115.532 125.052C115.719 124.97 115.89 124.856 116.036 124.714C116.184 124.564 116.322 124.406 116.449 124.24C116.663 123.97 116.862 123.688 117.045 123.397C117.108 123.324 117.162 123.244 117.208 123.16C117.249 123.078 117.295 122.999 117.347 122.923C117.475 122.899 117.6 122.869 117.726 122.838L118.064 122.757C118.315 122.679 118.555 122.591 118.792 122.493C119.029 122.395 119.259 122.286 119.493 122.154L119.723 122.032C119.689 122.108 119.65 122.181 119.608 122.253C119.371 122.659 119.151 123.068 118.931 123.485C118.724 123.917 118.542 124.362 118.386 124.815C118.374 124.841 118.372 124.869 118.38 124.896C118.388 124.923 118.406 124.946 118.43 124.961C118.473 124.995 118.522 125.021 118.575 125.035C118.65 125.058 118.728 125.074 118.806 125.083C118.841 125.087 118.878 125.079 118.909 125.061C118.94 125.042 118.964 125.014 118.978 124.981C119.005 124.951 119.026 124.934 119.039 124.934C119.296 124.595 119.54 124.233 119.767 123.877C119.994 123.522 120.237 123.177 120.495 122.842C120.691 122.598 120.898 122.354 121.121 122.107C121.34 121.863 121.589 121.648 121.862 121.467C121.845 121.574 121.813 121.677 121.768 121.775C121.727 121.863 121.686 121.951 121.653 122.043C121.555 122.25 121.457 122.447 121.358 122.632C121.186 122.989 121.072 123.372 121.019 123.766C120.999 123.951 121.049 124.138 121.162 124.287C121.246 124.413 121.369 124.508 121.511 124.559C121.654 124.609 121.809 124.613 121.954 124.568C122.22 124.498 122.471 124.384 122.699 124.229C122.842 124.151 122.981 124.065 123.115 123.972C123.244 123.881 123.382 123.789 123.531 123.691C124.053 123.312 124.547 122.94 124.997 122.578C124.878 122.815 124.779 123.061 124.703 123.315C124.659 123.47 124.642 123.632 124.655 123.793C124.67 123.953 124.735 124.105 124.841 124.226C124.929 124.326 125.049 124.392 125.18 124.412C125.31 124.443 125.446 124.443 125.576 124.412C125.852 124.358 126.108 124.231 126.317 124.043C126.544 123.844 126.751 123.654 126.933 123.468C127.116 123.282 127.272 123.129 127.411 122.974C127.43 123.235 127.552 123.478 127.749 123.651C127.873 123.754 128.017 123.831 128.172 123.877C128.327 123.923 128.489 123.937 128.65 123.918C128.8 123.892 128.949 123.855 129.093 123.806C129.228 123.76 129.36 123.704 129.486 123.637C129.826 123.467 130.146 123.26 130.441 123.021C130.715 122.831 130.979 122.628 131.236 122.418C131.179 122.615 131.179 122.824 131.236 123.021C131.32 123.209 131.466 123.363 131.649 123.458C131.828 123.556 132.027 123.614 132.231 123.627C132.577 123.611 132.919 123.546 133.247 123.434C133.562 123.329 133.866 123.193 134.154 123.028C134.469 122.852 134.763 122.689 135.034 122.496C135.412 122.261 135.777 122.005 136.128 121.731L137.072 120.98L137.715 120.455L137.797 120.384L138.054 120.147L138.115 120.079L138.152 120.012C138.152 119.955 138.136 119.9 138.105 119.852ZM128.558 120.228L128.772 119.697C128.835 119.536 128.908 119.38 128.992 119.23C129.049 119.081 129.114 118.942 129.181 118.806C129.249 118.671 129.313 118.539 129.374 118.404C129.847 117.466 130.397 116.568 131.016 115.719C131.209 115.448 131.415 115.181 131.635 114.92L131.717 114.839C131.744 114.813 131.77 114.786 131.795 114.758L131.835 114.71L131.913 114.619C132.069 114.433 132.15 114.379 132.153 114.45C132.163 114.499 132.163 114.549 132.153 114.599C132.13 114.667 132.111 114.737 132.096 114.808C132.076 114.881 132.049 114.951 132.015 115.018C131.954 115.186 131.882 115.349 131.798 115.506C131.751 115.597 131.703 115.682 131.659 115.763L131.52 116.024C131.36 116.254 131.215 116.495 131.087 116.745C130.762 117.314 130.424 117.863 130.072 118.393C129.706 118.921 129.34 119.453 128.968 119.981C128.782 120.238 128.596 120.485 128.413 120.739C128.443 120.567 128.497 120.394 128.558 120.228ZM133.528 120.228C133.698 120.084 133.892 119.97 134.1 119.89C134.111 119.961 134.111 120.035 134.1 120.106C134.094 120.138 134.082 120.168 134.063 120.194C133.92 120.475 133.731 120.729 133.504 120.946C133.308 121.144 133.094 121.323 132.864 121.481C132.7 121.598 132.524 121.699 132.34 121.782C132.197 121.843 132.137 121.86 132.164 121.829L132.258 121.67C132.382 121.477 132.52 121.294 132.671 121.122C132.684 121.111 132.696 121.099 132.705 121.085L132.742 121.054L132.8 120.983L132.83 120.949L133.084 120.668L133.233 120.519C133.283 120.476 133.329 120.43 133.372 120.381C133.417 120.323 133.47 120.272 133.528 120.228Z" fill="#FBBE42"/>
<path d="M80.074 103.685H76.9766L79.5121 105.479L78.466 108.549L81.1776 106.633L83.9772 108.549L82.9041 105.499L85.2872 103.685H82.2406L81.1776 100.658L80.074 103.685Z" fill="#BD1E2C"/>
<path d="M124.142 9.41025C124.07 9.25115 123.888 9.13943 123.756 9.00741C123.674 9.16313 123.515 9.32224 123.519 9.47457C123.546 9.77231 123.476 10.0709 123.32 10.3258C123.164 10.5808 122.93 10.7785 122.652 10.8896C121.298 11.4075 119.944 11.8476 118.566 12.2707C117.598 12.5686 116.569 12.7007 115.634 13.0697C114.24 13.6214 112.926 14.356 111.335 14.1258C111.115 14.0954 110.743 13.9329 110.74 13.8178C110.735 13.6888 110.76 13.5605 110.814 13.443C110.867 13.3255 110.947 13.222 111.048 13.1407C111.659 12.7852 112.303 12.4883 112.97 12.2538C114.355 11.7934 115.743 11.3838 116.599 10.0501C117.212 9.1022 117.148 7.91738 116.366 7.31143C116.305 7.45361 116.193 7.5924 116.196 7.72781C116.196 8.57072 115.706 9.04803 115.022 9.33916C114.393 9.61333 113.739 9.82535 113.069 9.97219C111.4 10.3107 109.71 10.5612 108.042 10.9167C105.784 11.394 105.059 12.5382 105.499 14.6979C105.486 14.8269 105.439 14.9502 105.365 15.0563C105.29 15.1623 105.189 15.2475 105.073 15.3039C104.669 15.3606 104.26 15.3697 103.854 15.331H101.958C102.098 15.9312 102.36 16.4964 102.727 16.9918C103.094 17.4873 103.558 17.9024 104.091 18.2118C105.042 18.8313 106.169 19.1833 107.111 19.6065C105.756 19.752 104.45 19.2849 103.268 18.4149C102.381 17.7683 102.036 17.7615 101.17 18.381C100.588 18.8658 99.9477 19.2752 99.2637 19.5997C98.0788 20.0533 96.8669 20.4325 95.6618 20.8285L95.3233 20.8725L90.7871 20.0533L90.7025 19.7351C90.1812 19.4816 89.6789 19.1909 89.1995 18.8651C89.037 18.6755 88.3362 19.0005 88.3362 19.0005L86.7926 19.4948L88.211 18.8177L87.341 17.5923C87.341 17.159 86.7722 17.0574 86.7722 17.0574C86.603 16.7189 86.3153 16.4989 84.9003 16.8035C85.28 16.8472 85.6399 16.9961 85.9395 17.2335C85.5434 16.9999 83.9422 17.0371 83.1196 17.071C82.9572 17.071 82.7811 17.0913 82.6355 17.098C81.8671 17.1285 81.146 17.098 80.7195 17.098C81.3225 17.0775 81.921 16.9878 82.5035 16.8306C82.3004 15.4935 81.6267 14.3831 81.1054 13.3032C81.1048 14.1697 81.2059 15.0332 81.4067 15.876C80.1914 12.8462 80.4521 10.7136 80.4521 10.7136C80.2515 10.6467 80.0372 10.6315 79.8292 10.6695C79.863 10.0128 80.5062 9.31547 80.5062 9.31547C80.0785 9.23369 79.6849 9.02625 79.3756 8.71967C79.7513 9.05819 80.3607 9.05819 80.8414 9.02434C81.2273 9.1699 81.7588 8.9397 81.5895 8.57072C81.4872 8.38599 81.4605 8.16878 81.5151 7.96477C81.5151 7.96477 81.7858 7.9343 81.7385 7.79213C81.7283 7.75447 81.71 7.71951 81.6848 7.68969C81.6597 7.65986 81.6283 7.6359 81.5929 7.61948C81.5929 7.61948 81.8535 7.61948 81.8637 7.50438C81.8739 7.38928 81.6911 7.25049 81.8028 7.02368C81.9145 6.79687 82.4054 7.02368 82.0161 6.22139L81.9923 6.17061C81.7806 5.88978 81.6464 5.55825 81.6031 5.20921C81.6683 5.34153 81.7441 5.46832 81.8299 5.58836C81.8111 5.38558 81.8413 5.18126 81.9179 4.99256L81.8874 4.97563L81.7486 4.89778L81.7825 4.87069C81.242 4.35809 80.5759 3.9971 79.8514 3.82414C79.1269 3.65118 78.3696 3.67238 77.6559 3.8856C78.3756 3.55355 79.1804 3.45241 79.9599 3.59606C80.7394 3.73971 81.4552 4.12111 82.0093 4.6879C82.585 4.24636 83.1965 3.85345 83.8373 3.51323C83.368 3.64826 82.9142 3.83206 82.4832 4.06163C83.1108 3.50914 83.8885 3.15565 84.7174 3.04607C85.3369 2.66354 85.276 2.33179 84.9646 2.07113C84.446 1.98296 83.9401 1.83176 83.4582 1.6209C83.8032 1.71718 84.157 1.77842 84.5143 1.8037C84.1891 1.65443 83.8486 1.54092 83.4988 1.46518C82.8217 1.32639 82.3072 1.97973 82.3072 1.97973C82.4778 2.25519 82.7332 2.46783 83.035 2.58568C82.6355 2.54856 82.2526 2.40732 81.9247 2.17607C81.6471 2.01697 81.383 1.83755 81.1968 1.70892C80.9453 1.54811 80.6716 1.42494 80.3844 1.34331C80.537 1.33637 80.69 1.34317 80.8414 1.36362C80.7297 1.0725 80.6214 0.480085 80.4589 0.320981C80.2964 0.161876 78.641 -0.0750894 78.2754 0.0230814C78.044 0.129083 77.8554 0.310499 77.7406 0.537634C78.4627 0.570452 79.1634 0.793506 79.7717 1.18421C78.8679 0.811402 77.875 0.71023 76.9145 0.893081C76.9145 0.893081 73.8239 1.69199 72.8218 4.25458C73.0072 3.48309 73.3622 2.76263 73.8611 2.1456C71.6844 3.69264 71.4305 5.95057 71.83 6.82057C71.9493 7.05428 72.1524 7.23439 72.3987 7.32497C73.1992 7.18998 74.0135 7.15586 74.8225 7.22341C74.2628 7.28167 73.7082 7.38239 73.1637 7.52469C74.0274 7.61263 74.8986 7.59102 75.7568 7.46037C75.4676 6.9677 75.2897 6.41773 75.2355 5.84902C75.4138 6.41129 75.6702 6.94573 75.9972 7.43668L76.1495 7.67364C76.1495 7.67364 76.0479 7.71088 75.6553 7.83275C75.3777 7.91738 75.2795 8.59441 75.2457 8.98371C76.1153 9.00392 76.9517 9.32175 77.6153 9.88418C76.8999 9.45627 76.0791 9.237 75.2457 9.25115C75.2457 9.25115 75.1881 9.31546 75.0832 9.41702C75.0832 9.41702 74.6329 10.6526 73.6715 11.1604C73.9449 10.84 74.1727 10.4835 74.3486 10.1008C74.0451 10.3627 73.7252 10.6046 73.3906 10.8253C72.9553 11.1808 72.6446 11.6658 72.5037 12.2098C72.5037 12.2403 72.1076 14.6404 74.2978 17.4975C74.2978 17.4975 72.8692 16.3533 72.2667 15.0398C72.8352 16.7908 73.9416 18.3178 75.4284 19.4034C74.5319 18.9261 73.7172 18.309 73.0148 17.5754C73.0419 18.6146 72.9776 19.945 73.0351 21.5462C73.1028 23.4521 74.6532 26.3837 74.809 25.8353C75.0258 25.3438 75.3245 24.8928 75.6925 24.5015C74.7785 26.0722 75.3167 28.9903 75.6688 30.4425C75.807 30.7708 75.9807 31.0829 76.1868 31.3734C74.4979 32.1528 72.7703 32.8454 71.0108 33.4486C69.3811 33.9874 67.7879 34.6308 66.241 35.3748C64.518 36.2244 62.8931 37.2739 61.2174 38.2251C60.05 38.8933 58.6935 39.1541 57.3616 38.9664C56.3054 38.831 55.9771 38.1168 56.5356 37.2095C56.7425 36.8766 56.9994 36.5774 57.2973 36.3226C58.5668 35.2326 60.151 34.8027 61.6981 34.3084C63.0962 33.865 64.5112 33.4689 65.8822 32.9543C67.5748 32.3145 68.5362 30.8691 68.4041 29.2306C68.2676 27.1122 67.3425 25.1218 65.8111 23.6518C64.4773 22.3417 62.9438 22.1217 61.2275 22.5042C61.0331 22.5868 60.8481 22.6901 60.6757 22.8123C61.0143 22.9003 61.1327 22.9274 61.258 22.9714C62.4564 23.3911 63.1097 23.425 62.9912 25.1887C62.9066 26.4852 63.5972 27.0675 64.9242 27.1419C65.4092 27.1233 65.8935 27.1945 66.3527 27.3518C67.9573 28.1338 68.1604 30.7641 66.654 31.7763C65.7916 32.3202 64.8572 32.7407 63.8781 33.0254C62.3514 33.5129 60.7705 33.8311 59.2336 34.2881C57.8523 34.6417 56.5918 35.3609 55.5844 36.37C54.3556 37.6801 54.4707 39.1052 55.8992 40.0193C56.3217 40.2624 56.7593 40.4783 57.2093 40.6658C58.015 41.045 58.3806 41.6001 58.1267 42.2298C57.0434 44.9041 57.277 47.6461 57.6324 50.405C57.8796 52.2872 57.8356 54.1288 57.0874 55.906C56.7929 56.6034 56.8572 56.6744 56.0719 58.4449C55.6402 59.4375 55.3003 60.4675 55.0563 61.5221C54.8058 62.1246 54.6636 62.7509 54.3183 63.2147C53.8749 63.8206 53.5736 64.3521 53.9019 65.1205C53.9648 65.4161 53.9437 65.7233 53.841 66.0074C53.7395 66.5118 53.5668 67.0027 53.4822 67.5071C53.3569 68.2925 53.6311 68.6919 54.4131 68.7529C55.2307 68.8256 56.0532 68.8256 56.8708 68.7529C57.9236 68.6479 58.1808 68.1232 57.6934 67.2092C57.483 66.8206 57.2322 66.4552 56.9452 66.1192C55.5641 64.518 55.5912 64.545 56.7421 62.7949C57.8017 61.1768 59.0271 59.8091 60.8044 58.9358C63.1131 57.8085 65.2762 56.3969 66.9485 54.4098C68.7901 52.2263 71.1428 51.16 73.9153 50.8587C74.2005 50.8434 74.4864 50.8434 74.7717 50.8587C74.4482 51.0574 74.0877 51.1887 73.7122 51.2446C71.7084 51.6 69.8525 52.5344 68.3737 53.9324C67.6323 54.6603 67.5612 55.4896 68.306 56.1904C69.5348 57.3447 70.8314 58.428 72.111 59.5282C73.1502 60.4253 74.2944 61.2208 74.4061 62.7983C74.4288 62.8988 74.4741 62.9929 74.5387 63.0732C74.6032 63.1536 74.6852 63.2182 74.7785 63.2621C75.2998 63.4652 75.3201 63.8578 75.249 64.2979C75.1379 64.6779 75.0742 65.0702 75.0595 65.4658C75.0967 65.7739 75.3066 66.2309 75.5503 66.3189C76.7718 66.7661 78.1063 66.7994 79.3485 66.4137C79.7683 66.2884 79.9883 66.0108 79.687 65.564C79.3858 65.1171 79.0879 64.6195 78.7629 64.1693C78.0858 63.235 77.2768 62.3751 76.7318 61.3731C76.064 60.276 75.5717 59.0813 75.2727 57.8322C75.1515 57.1469 75.1852 56.4431 75.3713 55.7725C75.5574 55.1019 75.8912 54.4815 76.3482 53.9566C76.8053 53.4317 77.3739 53.0158 78.0126 52.7392C78.6512 52.4627 79.3436 52.3325 80.0391 52.3583C81.3525 52.4091 82.6491 52.8187 83.9558 53.0354C84.1589 53.0726 84.5076 53.1098 84.5617 53.015C84.648 52.7991 84.6576 52.5601 84.5888 52.338C84.5069 52.0962 84.4097 51.8599 84.2977 51.6305C83.782 50.3366 83.5936 48.9355 83.7493 47.5513C83.8414 47.715 83.925 47.8834 83.9998 48.0557C84.037 48.1659 84.0642 48.2792 84.081 48.3942C84.3153 49.9052 85.027 51.3014 86.1122 52.3786C87.4662 53.6955 88.9151 54.8769 90.2895 56.1565C91.3761 57.1721 92.5542 58.1267 93.1567 59.5417C93.4874 60.3122 94.0327 60.9714 94.7275 61.4408C95.1958 61.7502 95.5949 62.1533 95.8996 62.6247C96.2043 63.096 96.4081 63.6254 96.498 64.1794C96.5207 64.4825 96.6516 64.7673 96.8669 64.9817C97.4966 65.415 97.4865 65.9567 97.3443 66.5931C97.2664 66.9316 97.2596 67.2871 97.2089 67.6323C97.1005 68.3568 97.5169 68.7122 98.1398 68.7529C99.0977 68.8206 100.059 68.8206 101.017 68.7529C101.847 68.6885 102.097 68.1638 101.745 67.3988C101.573 67.0147 101.369 66.6456 101.136 66.2952C100.459 65.3236 99.7308 64.3859 99.0673 63.4076C98.2752 62.2363 97.7132 61.0177 97.7369 59.5146C97.7539 58.8071 97.2427 58.0928 97.0227 57.3684C96.8323 56.9034 96.7368 56.4051 96.7417 55.9026C97.1352 52.95 97.2791 49.9695 97.1716 46.9928C97.1479 46.4478 97.0768 45.8993 97.026 45.3543L97.2359 45.3239C97.4215 46.0333 97.5483 46.7568 97.6151 47.487C97.6455 49.7111 97.6151 51.9352 97.5643 54.1559C97.5643 55.1477 97.8656 55.5099 98.8405 55.4592C100.334 55.3622 101.789 54.943 103.106 54.2303C103.292 54.1355 103.492 54.0712 103.685 53.9934L103.776 54.1829C103.099 54.5824 102.422 54.9886 101.745 55.3813C101.295 55.642 100.858 55.9737 101.126 56.5323C101.674 57.6866 102.341 58.753 103.444 59.5079C104.46 60.2052 105.272 61.0989 105.475 62.4056C105.467 62.644 105.548 62.8768 105.702 63.0589C106.508 63.5532 106.379 64.2438 106.21 64.9784C106.111 65.2667 106.089 65.5759 106.146 65.8754C106.258 66.1801 106.545 66.6236 106.786 66.6405C107.904 66.7223 109.027 66.7313 110.147 66.6676C110.719 66.6337 110.936 66.1903 110.709 65.652C110.504 65.155 110.248 64.6807 109.944 64.237C109.132 63.0793 108.218 61.9858 107.459 60.7942C107.108 60.145 106.855 59.4466 106.711 58.7225C106.474 57.8051 106.4 56.8403 106.112 55.9399C105.75 54.8126 105.635 53.7733 106.362 52.7408C106.421 52.6579 106.475 52.572 106.525 52.4836C111.088 47.7443 113.634 39.9245 113.688 35.3274C113.756 33.1507 112.747 32.0369 111.217 30.5475C110.423 29.7423 109.734 28.8404 109.165 27.863C108.883 27.4249 108.692 26.9346 108.602 26.4212C108.513 25.9078 108.527 25.3817 108.644 24.8739C108.755 25.1725 108.844 25.4791 108.908 25.7912C109.216 28.2354 110.675 29.735 112.862 30.6422C114.016 31.1229 115.032 31.7086 115.299 33.0931C115.425 33.7465 115.946 33.8006 116.501 33.6855C117.266 33.5298 118.048 33.4283 118.793 33.2015C119.57 32.991 120.319 32.6875 121.024 32.2976C122.198 31.6003 122.517 29.6436 121.579 28.7635C121.02 28.2141 120.662 27.4927 120.563 26.7154C120.418 25.9436 120.225 25.1785 120.025 24.4169C119.682 23.2681 119.692 22.0429 120.052 20.8996C120.333 20.0886 120.425 19.2241 120.321 18.3721C120.216 17.5201 119.918 16.7034 119.45 15.9843C118.959 15.1989 118.999 14.9281 119.808 14.505C120.702 14.0344 121.633 13.6248 122.517 13.1509C124.148 12.2504 124.771 10.7677 124.142 9.41025ZM94.2637 21.0824C93.5528 21.2571 92.8611 21.502 92.1987 21.8136L91.2576 21.3803C91.2982 21.0975 91.2305 20.8097 91.0681 20.5746L94.2637 21.0824ZM90.4046 21.2449L91.8772 21.9727C91.6695 22.0788 91.4664 22.1916 91.2678 22.3113C90.9293 22.5144 90.5908 22.7243 90.2522 22.9308L89.8291 21.5394C89.8291 21.5394 90.3741 21.3668 90.4046 21.2415V21.2449ZM88.5596 22.2605C88.7201 22.1131 88.8243 21.9144 88.8542 21.6985L89.3213 21.6782V21.7019C89.4124 21.6934 89.5015 21.6706 89.5854 21.6342C89.5322 21.7185 89.4558 21.7855 89.3653 21.8272L89.8223 23.1813L89.7614 23.2219L88.3193 23.8312L87.8115 22.4771C87.9438 22.5094 88.082 22.507 88.2131 22.4702C88.3441 22.4335 88.4635 22.3636 88.5596 22.2673V22.2605ZM87.2056 22.4196L87.8826 23.8312C87.8826 23.8312 87.6795 24.2408 87.4188 24.7046C86.5048 25.2936 85.601 25.8928 84.7107 26.492C84.6005 26.2728 84.4604 26.07 84.2943 25.8894C84.2943 25.8894 85.6247 24.4507 85.6958 23.8007C85.7196 23.6583 85.7816 23.5249 85.8752 23.4148C85.4318 23.6407 85.0151 23.9155 84.6328 24.2341C85.3002 23.4049 86.1886 22.7817 87.1954 22.4365L87.2056 22.4196ZM84.3485 19.4068C84.6073 19.4652 84.8696 19.507 85.1338 19.532C85.3302 19.5083 85.4994 18.9328 85.5502 18.9159C85.6082 18.8987 85.6703 18.9002 85.7274 18.9202C85.7845 18.9403 85.8339 18.9779 85.8684 19.0276C85.9564 19.1732 86.2306 19.2003 86.4541 19.2883C86.4835 19.3004 86.51 19.3187 86.5317 19.3419C86.5535 19.3651 86.5701 19.3927 86.5804 19.4228C86.5906 19.4529 86.5943 19.4849 86.5912 19.5166C86.5881 19.5483 86.5783 19.5789 86.5624 19.6065L83.773 20.4562C83.4615 20.6593 83.5563 19.8333 83.7459 19.5117C83.2754 19.3424 82.4561 19.1461 82.4561 19.1461C83.0909 19.1716 83.7215 19.2612 84.3383 19.4135L84.3485 19.4068ZM112.259 20.6694L113.779 20.3309L114.328 22.5245L112.259 20.6694Z" fill="#BD1E2C"/>
</svg>
